<?xml version="1.0" encoding="utf-8"?>
<!-- Generator: Adobe Illustrator 25.2.0, SVG Export Plug-In . SVG Version: 6.00 Build 0)  -->
<svg version="1.1" id="Layer_1" xmlns="http://www.w3.org/2000/svg" xmlns:xlink="http://www.w3.org/1999/xlink" x="0px" y="0px"
	 viewBox="0 0 128 128" style="enable-background:new 0 0 128 128;" xml:space="preserve">
<style type="text/css">
	.st0{display:none;fill:#29ABE2;stroke:#663399;stroke-width:1.27;stroke-miterlimit:10;}
	.st1{display:none;fill:none;stroke:#663399;stroke-miterlimit:10;}
	.st2{fill:none;stroke:#663399;stroke-width:1.5;stroke-miterlimit:10;}
	.st3{fill:#29ABE2;}
</style>
<rect x="0.5" y="0.5" class="st0" width="127" height="127"/>
<line class="st1" x1="64" y1="128" x2="64" y2="0"/>
<line class="st1" x1="128" y1="64" x2="0" y2="64"/>
<g>
	<g>
		<path class="st2" d="M18.5,41.2L17,37.3H9l-1.5,3.9H3.7L11,22.3h4.3l7.3,18.9H18.5z M10.3,33.9h5.5L13,26.5L10.3,33.9z"/>
		<path class="st2" d="M35.6,34.6c0,3.8-2.9,6.6-6.9,6.6h-4.8V28h4.8C32.7,28,35.6,30.8,35.6,34.6z M28.7,38.8
			c2.4,0,4.2-1.7,4.2-4.2s-1.7-4.2-4.2-4.2h-2.2v8.3H28.7z"/>
		<path class="st2" d="M49.3,34.6c0,3.8-2.9,6.6-6.9,6.6h-4.8V28h4.8C46.4,28,49.3,30.8,49.3,34.6z M42.4,38.8
			c2.4,0,4.2-1.7,4.2-4.2s-1.7-4.2-4.2-4.2h-2.2v8.3H42.4z"/>
		<path class="st2" d="M51.3,41.2V29.7c0-0.9,0.8-1.7,1.7-1.7H54v13.2H51.3z"/>
		<path class="st2" d="M66.3,28v2.5h-4v10.8h-2.6V30.4h-4V28H66.3z"/>
		<path class="st2" d="M67.9,41.2V29.7c0-0.9,0.8-1.7,1.7-1.7h0.9v13.2H67.9z"/>
		<path class="st2" d="M72.6,34.6c0-4,2.9-6.8,7-6.8c4.1,0,7,2.9,7,6.8c0,4-2.9,6.8-7,6.8C75.5,41.4,72.6,38.6,72.6,34.6z
			 M83.8,34.6c0-2.5-1.8-4.3-4.3-4.3c-2.5,0-4.3,1.8-4.3,4.3c0,2.5,1.8,4.3,4.3,4.3C82,38.9,83.8,37.1,83.8,34.6z"/>
		<path class="st2" d="M97.6,28h2.6v13.2h-2.6l-6.4-8.9v8.9h-2.6V28h2.6l6.4,8.8V28z"/>
		<path class="st2" d="M112,41.2l-1-2.8h-5.6l-1,2.8h-2.7l5.1-13.2h3l5.1,13.2H112z M106.2,36.1h3.9l-1.9-5.2L106.2,36.1z"/>
		<path class="st2" d="M117.8,41.2c-0.9,0-1.7-0.8-1.7-1.7V28h2.6v10.8h5.4v2.5H117.8z"/>
		<path class="st2" d="M3.9,77.2v-6h17.4V64H8.1c-2.3,0-4.2-1.9-4.2-4.2V48.9c0-2.3,1.9-4.2,4.2-4.2h19.7v6H10.4v7.1h13.2
			c2.3,0,4.2,1.9,4.2,4.2v11c0,2.3-1.9,4.2-4.2,4.2H3.9z"/>
		<path class="st2" d="M32.6,77.2V57.4c0-1.6,1.3-2.9,2.9-2.9h1.6v22.7H32.6z"/>
		<path class="st2" d="M57.3,54.5h4.5v22.7h-4.5l-11-15.3v15.3h-4.5V54.5h4.5l11,15V54.5z"/>
		<path class="st2" d="M88.4,63.7C89.4,71,85.3,77.5,77,77.5c-6.8,0-11.8-4.9-11.8-11.7c0-6.8,5.1-11.7,11.7-11.7
			c4.9,0,9.2,2.6,10.9,7h-5.4c-1.3-1.8-3.4-2.7-5.5-2.7c-3.9,0-7,3-7,7.3c0,4.3,3.2,7.3,7,7.3c3.2,0,6.1-1.3,6.8-5.2H77v-4.2H88.4z"
			/>
		<path class="st2" d="M94.8,77.2c-1.6,0-2.9-1.3-2.9-2.9V54.5h4.5V73h9.3v4.2H94.8z"/>
		<path class="st2" d="M125,58.7h-12.2v5H123V68h-10.2v5H125v4.2h-13.8c-1.6,0-2.9-1.3-2.9-2.9V57.4c0-1.6,1.3-2.9,2.9-2.9H125V58.7
			z"/>
		<path class="st2" d="M26.7,80.9v5.3h-8.6v23h-5.7v-23H3.9v-5.3H26.7z"/>
		<path class="st2" d="M41.3,109.2l-5.3-7.1h-2.7v7.1h-4V89.4h13.3c1.4,0,2.5,1.1,2.5,2.5v7.6c0,1.4-1.1,2.5-2.5,2.5h-2l5.3,7.1
			H41.3z M33.4,93v5.7h7.9V93H33.4z"/>
		<path class="st2" d="M62.2,109.2l-1.5-4.1h-8.4l-1.5,4.1h-4.1l7.6-19.8h4.5l7.6,19.8H62.2z M53.6,101.6h5.8l-2.9-7.8L53.6,101.6z"
			/>
		<path class="st2" d="M66.9,99.3c0-5.9,4.6-10.2,10.4-10.2c4.3,0,8.9,2.6,10,7.6h-4.2c-0.9-2.5-3.3-3.8-5.8-3.8
			c-3.5,0-6.3,2.6-6.3,6.4c0,3.7,2.8,6.4,6.3,6.4c2.5,0,4.9-1.3,5.8-3.8h4.2c-1.1,5-5.7,7.6-10,7.6C71.5,109.5,66.9,105.3,66.9,99.3
			z"/>
		<path class="st2" d="M106.9,109.2h-5.1l-7.6-9v9h-4V89.4h4v9l7.4-9h5l-8.1,9.8L106.9,109.2z"/>
		<path class="st2" d="M108.7,109.2v-3.7h10.6v-4.4h-8c-1.4,0-2.5-1.1-2.5-2.5V92c0-1.4,1.1-2.5,2.5-2.5h12v3.7h-10.6v4.4h8
			c1.4,0,2.5,1.1,2.5,2.5v6.7c0,1.4-1.1,2.5-2.5,2.5H108.7z"/>
	</g>
	<g>
		<path class="st3" d="M18.5,41.2L17,37.3H9l-1.5,3.9H3.7L11,22.3h4.3l7.3,18.9H18.5z M10.3,33.9h5.5L13,26.5L10.3,33.9z"/>
		<path class="st3" d="M35.6,34.6c0,3.8-2.9,6.6-6.9,6.6h-4.8V28h4.8C32.7,28,35.6,30.8,35.6,34.6z M28.7,38.8
			c2.4,0,4.2-1.7,4.2-4.2s-1.7-4.2-4.2-4.2h-2.2v8.3H28.7z"/>
		<path class="st3" d="M49.3,34.6c0,3.8-2.9,6.6-6.9,6.6h-4.8V28h4.8C46.4,28,49.3,30.8,49.3,34.6z M42.4,38.8
			c2.4,0,4.2-1.7,4.2-4.2s-1.7-4.2-4.2-4.2h-2.2v8.3H42.4z"/>
		<path class="st3" d="M51.3,41.2V29.7c0-0.9,0.8-1.7,1.7-1.7H54v13.2H51.3z"/>
		<path class="st3" d="M66.3,28v2.5h-4v10.8h-2.6V30.4h-4V28H66.3z"/>
		<path class="st3" d="M67.9,41.2V29.7c0-0.9,0.8-1.7,1.7-1.7h0.9v13.2H67.9z"/>
		<path class="st3" d="M72.6,34.6c0-4,2.9-6.8,7-6.8c4.1,0,7,2.9,7,6.8c0,4-2.9,6.8-7,6.8C75.5,41.4,72.6,38.6,72.6,34.6z
			 M83.8,34.6c0-2.5-1.8-4.3-4.3-4.3c-2.5,0-4.3,1.8-4.3,4.3c0,2.5,1.8,4.3,4.3,4.3C82,38.9,83.8,37.1,83.8,34.6z"/>
		<path class="st3" d="M97.6,28h2.6v13.2h-2.6l-6.4-8.9v8.9h-2.6V28h2.6l6.4,8.8V28z"/>
		<path class="st3" d="M112,41.2l-1-2.8h-5.6l-1,2.8h-2.7l5.1-13.2h3l5.1,13.2H112z M106.2,36.1h3.9l-1.9-5.2L106.2,36.1z"/>
		<path class="st3" d="M117.8,41.2c-0.9,0-1.7-0.8-1.7-1.7V28h2.6v10.8h5.4v2.5H117.8z"/>
		<path class="st3" d="M3.9,77.2v-6h17.4V64H8.1c-2.3,0-4.2-1.9-4.2-4.2V48.9c0-2.3,1.9-4.2,4.2-4.2h19.7v6H10.4v7.1h13.2
			c2.3,0,4.2,1.9,4.2,4.2v11c0,2.3-1.9,4.2-4.2,4.2H3.9z"/>
		<path class="st3" d="M32.6,77.2V57.4c0-1.6,1.3-2.9,2.9-2.9h1.6v22.7H32.6z"/>
		<path class="st3" d="M57.3,54.5h4.5v22.7h-4.5l-11-15.3v15.3h-4.5V54.5h4.5l11,15V54.5z"/>
		<path class="st3" d="M88.4,63.7C89.4,71,85.3,77.5,77,77.5c-6.8,0-11.8-4.9-11.8-11.7c0-6.8,5.1-11.7,11.7-11.7
			c4.9,0,9.2,2.6,10.9,7h-5.4c-1.3-1.8-3.4-2.7-5.5-2.7c-3.9,0-7,3-7,7.3c0,4.3,3.2,7.3,7,7.3c3.2,0,6.1-1.3,6.8-5.2H77v-4.2H88.4z"
			/>
		<path class="st3" d="M94.8,77.2c-1.6,0-2.9-1.3-2.9-2.9V54.5h4.5V73h9.3v4.2H94.8z"/>
		<path class="st3" d="M125,58.7h-12.2v5H123V68h-10.2v5H125v4.2h-13.8c-1.6,0-2.9-1.3-2.9-2.9V57.4c0-1.6,1.3-2.9,2.9-2.9H125V58.7
			z"/>
		<path class="st3" d="M26.7,80.9v5.3h-8.6v23h-5.7v-23H3.9v-5.3H26.7z"/>
		<path class="st3" d="M41.3,109.2l-5.3-7.1h-2.7v7.1h-4V89.4h13.3c1.4,0,2.5,1.1,2.5,2.5v7.6c0,1.4-1.1,2.5-2.5,2.5h-2l5.3,7.1
			H41.3z M33.4,93v5.7h7.9V93H33.4z"/>
		<path class="st3" d="M62.2,109.2l-1.5-4.1h-8.4l-1.5,4.1h-4.1l7.6-19.8h4.5l7.6,19.8H62.2z M53.6,101.6h5.8l-2.9-7.8L53.6,101.6z"
			/>
		<path class="st3" d="M66.9,99.3c0-5.9,4.6-10.2,10.4-10.2c4.3,0,8.9,2.6,10,7.6h-4.2c-0.9-2.5-3.3-3.8-5.8-3.8
			c-3.5,0-6.3,2.6-6.3,6.4c0,3.7,2.8,6.4,6.3,6.4c2.5,0,4.9-1.3,5.8-3.8h4.2c-1.1,5-5.7,7.6-10,7.6C71.5,109.5,66.9,105.3,66.9,99.3
			z"/>
		<path class="st3" d="M106.9,109.2h-5.1l-7.6-9v9h-4V89.4h4v9l7.4-9h5l-8.1,9.8L106.9,109.2z"/>
		<path class="st3" d="M108.7,109.2v-3.7h10.6v-4.4h-8c-1.4,0-2.5-1.1-2.5-2.5V92c0-1.4,1.1-2.5,2.5-2.5h12v3.7h-10.6v4.4h8
			c1.4,0,2.5,1.1,2.5,2.5v6.7c0,1.4-1.1,2.5-2.5,2.5H108.7z"/>
	</g>
</g>
<g>
</g>
<g>
</g>
<g>
</g>
<g>
</g>
<g>
</g>
<g>
</g>
<g>
</g>
<g>
</g>
<g>
</g>
<g>
</g>
<g>
</g>
<g>
</g>
<g>
</g>
<g>
</g>
<g>
</g>
</svg>
