<?xml version="1.0" encoding="utf-8"?>
<!-- Generator: Adobe Illustrator 25.2.0, SVG Export Plug-In . SVG Version: 6.00 Build 0)  -->
<svg version="1.1" id="Layer_1" xmlns="http://www.w3.org/2000/svg" xmlns:xlink="http://www.w3.org/1999/xlink" x="0px" y="0px"
	 viewBox="0 0 128 128" style="enable-background:new 0 0 128 128;" xml:space="preserve">
<style type="text/css">
	.st0{display:none;fill:#29ABE2;stroke:#663399;stroke-width:1.27;stroke-miterlimit:10;}
	.st1{display:none;fill:none;stroke:#663399;stroke-miterlimit:10;}
	.st2{fill:none;stroke:#663399;stroke-width:1.5;stroke-miterlimit:10;}
	.st3{fill:#29ABE2;}
</style>
<rect x="0.5" y="0.5" class="st0" width="127" height="127"/>
<line class="st1" x1="64" y1="128" x2="64" y2="0"/>
<line class="st1" x1="128" y1="64" x2="0" y2="64"/>
<g>
	<g>
		<path class="st2" d="M18.5,41.2L17,37.3H9l-1.5,3.9H3.7L11,22.3h4.3l7.3,18.9H18.5z M10.3,33.9h5.5L13,26.5L10.3,33.9z"/>
		<path class="st2" d="M35.6,34.6c0,3.8-2.9,6.6-6.9,6.6h-4.8V28h4.8C32.7,28,35.6,30.8,35.6,34.6z M28.7,38.8
			c2.4,0,4.2-1.7,4.2-4.2s-1.7-4.2-4.2-4.2h-2.2v8.3H28.7z"/>
		<path class="st2" d="M49.3,34.6c0,3.8-2.9,6.6-6.9,6.6h-4.8V28h4.8C46.4,28,49.3,30.8,49.3,34.6z M42.4,38.8
			c2.4,0,4.2-1.7,4.2-4.2s-1.7-4.2-4.2-4.2h-2.2v8.3H42.4z"/>
		<path class="st2" d="M51.3,41.2V29.7c0-0.9,0.8-1.7,1.7-1.7H54v13.2H51.3z"/>
		<path class="st2" d="M66.3,28v2.5h-4v10.8h-2.6V30.4h-4V28H66.3z"/>
		<path class="st2" d="M67.9,41.2V29.7c0-0.9,0.8-1.7,1.7-1.7h0.9v13.2H67.9z"/>
		<path class="st2" d="M72.6,34.6c0-4,2.9-6.8,7-6.8c4.1,0,7,2.9,7,6.8c0,4-2.9,6.8-7,6.8C75.5,41.4,72.6,38.6,72.6,34.6z
			 M83.8,34.6c0-2.5-1.8-4.3-4.3-4.3c-2.5,0-4.3,1.8-4.3,4.3c0,2.5,1.8,4.3,4.3,4.3C82,38.9,83.8,37.1,83.8,34.6z"/>
		<path class="st2" d="M97.6,28h2.6v13.2h-2.6l-6.4-8.9v8.9h-2.6V28h2.6l6.4,8.8V28z"/>
		<path class="st2" d="M112,41.2l-1-2.8h-5.6l-1,2.8h-2.7l5.1-13.2h3l5.1,13.2H112z M106.2,36.1h3.9l-1.9-5.2L106.2,36.1z"/>
		<path class="st2" d="M117.8,41.2c-0.9,0-1.7-0.8-1.7-1.7V28h2.6v10.8h5.4v2.5H117.8z"/>
		<path class="st2" d="M29.5,58.9c0,8.3-6.3,14.4-15,14.4H4.1V44.5h10.5C23.3,44.5,29.5,50.5,29.5,58.9z M14.6,67.9c5.2,0,9-3.8,9-9
			s-3.8-9-9-9H9.8v18H14.6z"/>
		<path class="st2" d="M32,63.2c0-6,4.4-10.3,10.6-10.3s10.6,4.3,10.6,10.3c0,6-4.4,10.3-10.6,10.3S32,69.2,32,63.2z M49,63.2
			c0-3.8-2.7-6.6-6.5-6.6c-3.7,0-6.5,2.8-6.5,6.6s2.7,6.6,6.5,6.6C46.3,69.8,49,67,49,63.2z"/>
		<path class="st2" d="M58.8,73.2c-1.4,0-2.6-1.1-2.6-2.6V53.1h4v16.5h8.3V53.1h4v17.5c0,1.4-1.1,2.6-2.6,2.6H58.8z"/>
		<path class="st2" d="M92.5,60.7c0,1.1-0.7,2.1-1.7,2.4c1,0.3,1.7,1.3,1.7,2.4v5c0,1.4-1.1,2.6-2.6,2.6H76.6V53.1h13.3
			c1.4,0,2.6,1.1,2.6,2.6V60.7z M88.5,56.9h-7.9v4.6h7.9V56.9z M88.5,69.5v-4.6h-7.9v4.6H88.5z"/>
		<path class="st2" d="M98.6,73.2c-1.4,0-2.6-1.1-2.6-2.6V53.1h4v16.4h8.2v3.7H98.6z"/>
		<path class="st2" d="M125.2,56.9h-10.8v4.4h9V65h-9v4.4h10.8v3.7H113c-1.4,0-2.6-1.1-2.6-2.6V55.7c0-1.4,1.1-2.6,2.6-2.6h12.2
			V56.9z"/>
		<path class="st2" d="M26.7,76.9v5.3h-8.6v23h-5.7v-23H3.9v-5.3H26.7z"/>
		<path class="st2" d="M41.3,105.2L36,98.1h-2.7v7.1h-4V85.4h13.3c1.4,0,2.5,1.1,2.5,2.5v7.6c0,1.4-1.1,2.5-2.5,2.5h-2l5.3,7.1H41.3
			z M33.4,89v5.7h7.9V89H33.4z"/>
		<path class="st2" d="M62.2,105.2l-1.5-4.1h-8.4l-1.5,4.1h-4.1l7.6-19.8h4.5l7.6,19.8H62.2z M53.6,97.6h5.8l-2.9-7.8L53.6,97.6z"/>
		<path class="st2" d="M66.9,95.3c0-5.9,4.6-10.2,10.4-10.2c4.3,0,8.9,2.6,10,7.6h-4.2c-0.9-2.5-3.3-3.8-5.8-3.8
			c-3.5,0-6.3,2.6-6.3,6.4c0,3.7,2.8,6.4,6.3,6.4c2.5,0,4.9-1.3,5.8-3.8h4.2c-1.1,5-5.7,7.6-10,7.6C71.5,105.5,66.9,101.3,66.9,95.3
			z"/>
		<path class="st2" d="M106.9,105.2h-5.1l-7.6-9v9h-4V85.4h4v9l7.4-9h5l-8.1,9.8L106.9,105.2z"/>
		<path class="st2" d="M108.7,105.2v-3.7h10.6v-4.4h-8c-1.4,0-2.5-1.1-2.5-2.5V88c0-1.4,1.1-2.5,2.5-2.5h12v3.7h-10.6v4.4h8
			c1.4,0,2.5,1.1,2.5,2.5v6.7c0,1.4-1.1,2.5-2.5,2.5H108.7z"/>
	</g>
	<g>
		<path class="st3" d="M18.5,41.2L17,37.3H9l-1.5,3.9H3.7L11,22.3h4.3l7.3,18.9H18.5z M10.3,33.9h5.5L13,26.5L10.3,33.9z"/>
		<path class="st3" d="M35.6,34.6c0,3.8-2.9,6.6-6.9,6.6h-4.8V28h4.8C32.7,28,35.6,30.8,35.6,34.6z M28.7,38.8
			c2.4,0,4.2-1.7,4.2-4.2s-1.7-4.2-4.2-4.2h-2.2v8.3H28.7z"/>
		<path class="st3" d="M49.3,34.6c0,3.8-2.9,6.6-6.9,6.6h-4.8V28h4.8C46.4,28,49.3,30.8,49.3,34.6z M42.4,38.8
			c2.4,0,4.2-1.7,4.2-4.2s-1.7-4.2-4.2-4.2h-2.2v8.3H42.4z"/>
		<path class="st3" d="M51.3,41.2V29.7c0-0.9,0.8-1.7,1.7-1.7H54v13.2H51.3z"/>
		<path class="st3" d="M66.3,28v2.5h-4v10.8h-2.6V30.4h-4V28H66.3z"/>
		<path class="st3" d="M67.9,41.2V29.7c0-0.9,0.8-1.7,1.7-1.7h0.9v13.2H67.9z"/>
		<path class="st3" d="M72.6,34.6c0-4,2.9-6.8,7-6.8c4.1,0,7,2.9,7,6.8c0,4-2.9,6.8-7,6.8C75.5,41.4,72.6,38.6,72.6,34.6z
			 M83.8,34.6c0-2.5-1.8-4.3-4.3-4.3c-2.5,0-4.3,1.8-4.3,4.3c0,2.5,1.8,4.3,4.3,4.3C82,38.9,83.8,37.1,83.8,34.6z"/>
		<path class="st3" d="M97.6,28h2.6v13.2h-2.6l-6.4-8.9v8.9h-2.6V28h2.6l6.4,8.8V28z"/>
		<path class="st3" d="M112,41.2l-1-2.8h-5.6l-1,2.8h-2.7l5.1-13.2h3l5.1,13.2H112z M106.2,36.1h3.9l-1.9-5.2L106.2,36.1z"/>
		<path class="st3" d="M117.8,41.2c-0.9,0-1.7-0.8-1.7-1.7V28h2.6v10.8h5.4v2.5H117.8z"/>
		<path class="st3" d="M29.5,58.9c0,8.3-6.3,14.4-15,14.4H4.1V44.5h10.5C23.3,44.5,29.5,50.5,29.5,58.9z M14.6,67.9c5.2,0,9-3.8,9-9
			s-3.8-9-9-9H9.8v18H14.6z"/>
		<path class="st3" d="M32,63.2c0-6,4.4-10.3,10.6-10.3s10.6,4.3,10.6,10.3c0,6-4.4,10.3-10.6,10.3S32,69.2,32,63.2z M49,63.2
			c0-3.8-2.7-6.6-6.5-6.6c-3.7,0-6.5,2.8-6.5,6.6s2.7,6.6,6.5,6.6C46.3,69.8,49,67,49,63.2z"/>
		<path class="st3" d="M58.8,73.2c-1.4,0-2.6-1.1-2.6-2.6V53.1h4v16.5h8.3V53.1h4v17.5c0,1.4-1.1,2.6-2.6,2.6H58.8z"/>
		<path class="st3" d="M92.5,60.7c0,1.1-0.7,2.1-1.7,2.4c1,0.3,1.7,1.3,1.7,2.4v5c0,1.4-1.1,2.6-2.6,2.6H76.6V53.1h13.3
			c1.4,0,2.6,1.1,2.6,2.6V60.7z M88.5,56.9h-7.9v4.6h7.9V56.9z M88.5,69.5v-4.6h-7.9v4.6H88.5z"/>
		<path class="st3" d="M98.6,73.2c-1.4,0-2.6-1.1-2.6-2.6V53.1h4v16.4h8.2v3.7H98.6z"/>
		<path class="st3" d="M125.2,56.9h-10.8v4.4h9V65h-9v4.4h10.8v3.7H113c-1.4,0-2.6-1.1-2.6-2.6V55.7c0-1.4,1.1-2.6,2.6-2.6h12.2
			V56.9z"/>
		<path class="st3" d="M26.7,76.9v5.3h-8.6v23h-5.7v-23H3.9v-5.3H26.7z"/>
		<path class="st3" d="M41.3,105.2L36,98.1h-2.7v7.1h-4V85.4h13.3c1.4,0,2.5,1.1,2.5,2.5v7.6c0,1.4-1.1,2.5-2.5,2.5h-2l5.3,7.1H41.3
			z M33.4,89v5.7h7.9V89H33.4z"/>
		<path class="st3" d="M62.2,105.2l-1.5-4.1h-8.4l-1.5,4.1h-4.1l7.6-19.8h4.5l7.6,19.8H62.2z M53.6,97.6h5.8l-2.9-7.8L53.6,97.6z"/>
		<path class="st3" d="M66.9,95.3c0-5.9,4.6-10.2,10.4-10.2c4.3,0,8.9,2.6,10,7.6h-4.2c-0.9-2.5-3.3-3.8-5.8-3.8
			c-3.5,0-6.3,2.6-6.3,6.4c0,3.7,2.8,6.4,6.3,6.4c2.5,0,4.9-1.3,5.8-3.8h4.2c-1.1,5-5.7,7.6-10,7.6C71.5,105.5,66.9,101.3,66.9,95.3
			z"/>
		<path class="st3" d="M106.9,105.2h-5.1l-7.6-9v9h-4V85.4h4v9l7.4-9h5l-8.1,9.8L106.9,105.2z"/>
		<path class="st3" d="M108.7,105.2v-3.7h10.6v-4.4h-8c-1.4,0-2.5-1.1-2.5-2.5V88c0-1.4,1.1-2.5,2.5-2.5h12v3.7h-10.6v4.4h8
			c1.4,0,2.5,1.1,2.5,2.5v6.7c0,1.4-1.1,2.5-2.5,2.5H108.7z"/>
	</g>
</g>
<g>
</g>
<g>
</g>
<g>
</g>
<g>
</g>
<g>
</g>
<g>
</g>
<g>
</g>
<g>
</g>
<g>
</g>
<g>
</g>
<g>
</g>
<g>
</g>
<g>
</g>
<g>
</g>
<g>
</g>
</svg>
