<?xml version="1.0" encoding="utf-8"?>
<!-- Generator: Adobe Illustrator 25.2.0, SVG Export Plug-In . SVG Version: 6.00 Build 0)  -->
<svg version="1.1" id="Layer_1" xmlns="http://www.w3.org/2000/svg" xmlns:xlink="http://www.w3.org/1999/xlink" x="0px" y="0px"
	 viewBox="0 0 128 128" style="enable-background:new 0 0 128 128;" xml:space="preserve">
<style type="text/css">
	.st0{display:none;fill:#29ABE2;stroke:#663399;stroke-width:1.27;stroke-miterlimit:10;}
	.st1{display:none;fill:none;stroke:#663399;stroke-miterlimit:10;}
	.st2{fill:none;stroke:#663399;stroke-width:1.5;stroke-miterlimit:10;}
	.st3{fill:#29ABE2;}
</style>
<rect x="0.5" y="0.5" class="st0" width="127" height="127"/>
<line class="st1" x1="64" y1="128" x2="64" y2="0"/>
<line class="st1" x1="128" y1="64" x2="0" y2="64"/>
<g>
	<g>
		<path class="st2" d="M2.7,49.7c0-6.9,5.3-11.9,12.1-11.9c5,0,10.4,3,11.7,8.9h-4.9c-1.1-2.9-3.9-4.5-6.8-4.5
			c-4.1,0-7.3,3.1-7.3,7.4c0,4.4,3.2,7.4,7.3,7.4c2.9,0,5.7-1.6,6.8-4.5h4.9c-1.3,5.9-6.7,8.9-11.7,8.9C8,61.5,2.7,56.6,2.7,49.7z"
			/>
		<path class="st2" d="M28.4,53.1c0-4.8,3.6-8.3,8.5-8.3c5,0,8.5,3.5,8.5,8.3c0,4.8-3.6,8.3-8.5,8.3C32,61.4,28.4,58,28.4,53.1z
			 M42.1,53.1c0-3.1-2.2-5.3-5.2-5.3c-3,0-5.2,2.2-5.2,5.3c0,3.1,2.2,5.3,5.2,5.3C39.9,58.4,42.1,56.2,42.1,53.1z"/>
		<path class="st2" d="M60.4,45h3.2v16.2h-3.2V50.7L57.1,56h-2.8l-3.2-5.3v10.5h-3.2V45h3.2l4.6,7.6L60.4,45z"/>
		<path class="st2" d="M77.8,48h-7.7v3.6h7v3h-7v6.6h-3.2V47.1c0-1.2,0.9-2.1,2.1-2.1h8.9V48z"/>
		<path class="st2" d="M79,53.1c0-4.8,3.6-8.3,8.5-8.3s8.5,3.5,8.5,8.3c0,4.8-3.6,8.3-8.5,8.3S79,58,79,53.1z M92.8,53.1
			c0-3.1-2.2-5.3-5.2-5.3c-3,0-5.2,2.2-5.2,5.3c0,3.1,2.2,5.3,5.2,5.3C90.6,58.4,92.8,56.2,92.8,53.1z"/>
		<path class="st2" d="M108.3,61.2l-4.3-5.8h-2.2v5.8h-3.2V45h10.9c1.2,0,2.1,0.9,2.1,2.1v6.2c0,1.2-0.9,2.1-2.1,2.1h-1.6l4.3,5.8
			H108.3z M101.8,47.9v4.6h6.5v-4.6H101.8z"/>
		<path class="st2" d="M126.1,45v3h-4.9v13.2H118V48h-4.9v-3H126.1z"/>
		<path class="st2" d="M6.6,90.2c-1.7,0-3.1-1.4-3.1-3.1v-21h4.8v19.8h10V66.1h4.8v21c0,1.7-1.4,3.1-3.1,3.1H6.6z"/>
		<path class="st2" d="M40.8,75.5V82c0,1.2-1,2.2-2.2,2.2h-8v6h-3.4V73.3h11.4C39.9,73.3,40.8,74.3,40.8,75.5z M37.5,81.2v-4.8h-6.8
			v4.8H37.5z"/>
		<path class="st2" d="M59.7,80.2c0.8,5.4-2.3,10.3-8.4,10.3c-5.1,0-8.7-3.6-8.7-8.7c0-5.1,3.8-8.7,8.7-8.7c3.7,0,6.8,2,8.1,5.2h-4
			c-1-1.3-2.5-2-4.1-2c-2.9,0-5.2,2.2-5.2,5.4c0,3.2,2.3,5.4,5.2,5.4c2.4,0,4.5-1,5-3.9h-5.1v-3.1H59.7z"/>
		<path class="st2" d="M72.5,90.2l-4.5-6h-2.3v6h-3.4V73.3h11.4c1.2,0,2.2,1,2.2,2.2V82c0,1.2-1,2.2-2.2,2.2H72l4.5,6H72.5z
			 M65.7,76.3v4.8h6.8v-4.8H65.7z"/>
		<path class="st2" d="M90.3,90.2L89,86.7h-7.2l-1.3,3.5h-3.5l6.5-16.9h3.9L94,90.2H90.3z M82.9,83.7h4.9L85.4,77L82.9,83.7z"/>
		<path class="st2" d="M110.6,81.8c0,4.9-3.7,8.5-8.8,8.5h-6.2V73.3h6.2C106.9,73.3,110.6,76.9,110.6,81.8z M101.8,87.1
			c3.1,0,5.3-2.2,5.3-5.3s-2.2-5.3-5.3-5.3H99v10.6H101.8z"/>
		<path class="st2" d="M125.6,76.4h-9.1v3.7h7.6v3.1h-7.6v3.7h9.1v3.1h-10.3c-1.2,0-2.2-1-2.2-2.2V75.5c0-1.2,1-2.2,2.2-2.2h10.3
			V76.4z"/>
	</g>
	<g>
		<path class="st3" d="M2.7,49.7c0-6.9,5.3-11.9,12.1-11.9c5,0,10.4,3,11.7,8.9h-4.9c-1.1-2.9-3.9-4.5-6.8-4.5
			c-4.1,0-7.3,3.1-7.3,7.4c0,4.4,3.2,7.4,7.3,7.4c2.9,0,5.7-1.6,6.8-4.5h4.9c-1.3,5.9-6.7,8.9-11.7,8.9C8,61.5,2.7,56.6,2.7,49.7z"
			/>
		<path class="st3" d="M28.4,53.1c0-4.8,3.6-8.3,8.5-8.3c5,0,8.5,3.5,8.5,8.3c0,4.8-3.6,8.3-8.5,8.3C32,61.4,28.4,58,28.4,53.1z
			 M42.1,53.1c0-3.1-2.2-5.3-5.2-5.3c-3,0-5.2,2.2-5.2,5.3c0,3.1,2.2,5.3,5.2,5.3C39.9,58.4,42.1,56.2,42.1,53.1z"/>
		<path class="st3" d="M60.4,45h3.2v16.2h-3.2V50.7L57.1,56h-2.8l-3.2-5.3v10.5h-3.2V45h3.2l4.6,7.6L60.4,45z"/>
		<path class="st3" d="M77.8,48h-7.7v3.6h7v3h-7v6.6h-3.2V47.1c0-1.2,0.9-2.1,2.1-2.1h8.9V48z"/>
		<path class="st3" d="M79,53.1c0-4.8,3.6-8.3,8.5-8.3s8.5,3.5,8.5,8.3c0,4.8-3.6,8.3-8.5,8.3S79,58,79,53.1z M92.8,53.1
			c0-3.1-2.2-5.3-5.2-5.3c-3,0-5.2,2.2-5.2,5.3c0,3.1,2.2,5.3,5.2,5.3C90.6,58.4,92.8,56.2,92.8,53.1z"/>
		<path class="st3" d="M108.3,61.2l-4.3-5.8h-2.2v5.8h-3.2V45h10.9c1.2,0,2.1,0.9,2.1,2.1v6.2c0,1.2-0.9,2.1-2.1,2.1h-1.6l4.3,5.8
			H108.3z M101.8,47.9v4.6h6.5v-4.6H101.8z"/>
		<path class="st3" d="M126.1,45v3h-4.9v13.2H118V48h-4.9v-3H126.1z"/>
		<path class="st3" d="M6.6,90.2c-1.7,0-3.1-1.4-3.1-3.1v-21h4.8v19.8h10V66.1h4.8v21c0,1.7-1.4,3.1-3.1,3.1H6.6z"/>
		<path class="st3" d="M40.8,75.5V82c0,1.2-1,2.2-2.2,2.2h-8v6h-3.4V73.3h11.4C39.9,73.3,40.8,74.3,40.8,75.5z M37.5,81.2v-4.8h-6.8
			v4.8H37.5z"/>
		<path class="st3" d="M59.7,80.2c0.8,5.4-2.3,10.3-8.4,10.3c-5.1,0-8.7-3.6-8.7-8.7c0-5.1,3.8-8.7,8.7-8.7c3.7,0,6.8,2,8.1,5.2h-4
			c-1-1.3-2.5-2-4.1-2c-2.9,0-5.2,2.2-5.2,5.4c0,3.2,2.3,5.4,5.2,5.4c2.4,0,4.5-1,5-3.9h-5.1v-3.1H59.7z"/>
		<path class="st3" d="M72.5,90.2l-4.5-6h-2.3v6h-3.4V73.3h11.4c1.2,0,2.2,1,2.2,2.2V82c0,1.2-1,2.2-2.2,2.2H72l4.5,6H72.5z
			 M65.7,76.3v4.8h6.8v-4.8H65.7z"/>
		<path class="st3" d="M90.3,90.2L89,86.7h-7.2l-1.3,3.5h-3.5l6.5-16.9h3.9L94,90.2H90.3z M82.9,83.7h4.9L85.4,77L82.9,83.7z"/>
		<path class="st3" d="M110.6,81.8c0,4.9-3.7,8.5-8.8,8.5h-6.2V73.3h6.2C106.9,73.3,110.6,76.9,110.6,81.8z M101.8,87.1
			c3.1,0,5.3-2.2,5.3-5.3s-2.2-5.3-5.3-5.3H99v10.6H101.8z"/>
		<path class="st3" d="M125.6,76.4h-9.1v3.7h7.6v3.1h-7.6v3.7h9.1v3.1h-10.3c-1.2,0-2.2-1-2.2-2.2V75.5c0-1.2,1-2.2,2.2-2.2h10.3
			V76.4z"/>
	</g>
</g>
<g>
</g>
<g>
</g>
<g>
</g>
<g>
</g>
<g>
</g>
<g>
</g>
<g>
</g>
<g>
</g>
<g>
</g>
<g>
</g>
<g>
</g>
<g>
</g>
<g>
</g>
<g>
</g>
<g>
</g>
</svg>
