<?xml version="1.0" encoding="utf-8"?>
<!-- Generator: Adobe Illustrator 25.2.0, SVG Export Plug-In . SVG Version: 6.00 Build 0)  -->
<svg version="1.1" id="Layer_1" xmlns="http://www.w3.org/2000/svg" xmlns:xlink="http://www.w3.org/1999/xlink" x="0px" y="0px"
	 viewBox="0 0 64 64" style="enable-background:new 0 0 64 64;" xml:space="preserve">
<style type="text/css">
	.st0{display:none;fill-rule:evenodd;clip-rule:evenodd;fill:#0AC1FF;stroke:#663399;stroke-width:0.25;stroke-miterlimit:10;}
	.st1{fill:#0AC1FF;stroke:#663399;stroke-width:0.25;stroke-miterlimit:10;}
</style>
<rect x="5.293" y="21.253" class="st0" width="53.414" height="21.494"/>
<g>
	<path class="st1" d="M9.467,42.746c-0.677,0-1.219-0.542-1.219-1.22v-8.265h1.896v7.791h3.93v-7.791h1.897v8.265
		c0,0.678-0.542,1.22-1.219,1.22H9.467z"/>
	<path class="st1" d="M22.901,36.957v2.562c0,0.475-0.38,0.854-0.854,0.854h-3.132v2.372h-1.329v-6.644h4.46
		C22.521,36.103,22.901,36.482,22.901,36.957z M21.572,39.188v-1.898h-2.657v1.898H21.572z"/>
	<path class="st1" d="M30.301,38.808c0.313,2.116-0.892,4.033-3.303,4.033c-1.993,0-3.436-1.433-3.436-3.416
		c0-1.993,1.5-3.417,3.417-3.417c1.442,0,2.676,0.769,3.17,2.06h-1.566c-0.38-0.513-0.987-0.778-1.604-0.778
		c-1.148,0-2.041,0.883-2.041,2.136c0,1.243,0.92,2.135,2.06,2.135c0.949,0,1.775-0.389,1.983-1.519h-1.993v-1.233H30.301z"/>
	<path class="st1" d="M35.348,42.746l-1.785-2.372h-0.892v2.372h-1.329v-6.644h4.46c0.475,0,0.854,0.38,0.854,0.854v2.562
		c0,0.475-0.38,0.854-0.854,0.854h-0.674l1.784,2.372H35.348z M32.671,37.289v1.898h2.657v-1.898H32.671z"/>
	<path class="st1" d="M42.33,42.746l-0.513-1.386h-2.81l-0.512,1.386h-1.367l2.562-6.644h1.519l2.562,6.644H42.33z M39.444,40.174
		h1.937l-0.968-2.619L39.444,40.174z"/>
	<path class="st1" d="M50.319,39.425c0,1.927-1.452,3.321-3.464,3.321h-2.421v-6.644h2.421
		C48.867,36.103,50.319,37.498,50.319,39.425z M46.855,41.513c1.215,0,2.088-0.873,2.088-2.088s-0.873-2.088-2.088-2.088h-1.092
		v4.176H46.855z"/>
	<path class="st1" d="M56.2,37.337h-3.559v1.471h2.989v1.233h-2.989v1.472H56.2v1.233h-4.033c-0.475,0-0.854-0.38-0.854-0.854
		v-4.936c0-0.475,0.38-0.854,0.854-0.854H56.2V37.337z"/>
</g>
<g>
	<path class="st1" d="M6.804,25.998c0-2.846,2.195-4.878,4.973-4.878c2.046,0,4.268,1.246,4.783,3.658h-2.005
		c-0.434-1.192-1.585-1.829-2.777-1.829c-1.681,0-3.008,1.26-3.008,3.049c0,1.788,1.328,3.048,3.008,3.048
		c1.192,0,2.344-0.637,2.777-1.829h2.005c-0.515,2.412-2.737,3.659-4.783,3.659C9,30.876,6.804,28.843,6.804,25.998z"/>
	<path class="st1" d="M17.369,27.418c0-1.984,1.471-3.417,3.512-3.417s3.512,1.433,3.512,3.417c0,1.983-1.471,3.417-3.512,3.417
		S17.369,29.402,17.369,27.418z M23.017,27.418c0-1.262-0.902-2.183-2.136-2.183s-2.135,0.921-2.135,2.183s0.901,2.183,2.135,2.183
		S23.017,28.681,23.017,27.418z"/>
	<path class="st1" d="M30.511,24.097h1.329v6.644h-1.329v-4.318l-1.329,2.183h-1.139l-1.329-2.183v4.318h-1.329v-6.644h1.329
		l1.898,3.123L30.511,24.097z"/>
	<path class="st1" d="M37.674,25.331h-3.18v1.471h2.895v1.234h-2.895v2.705h-1.329v-5.79c0-0.475,0.38-0.854,0.854-0.854h3.654
		V25.331z"/>
	<path class="st1" d="M38.174,27.418c0-1.984,1.472-3.417,3.512-3.417c2.041,0,3.512,1.433,3.512,3.417
		c0,1.983-1.471,3.417-3.512,3.417C39.646,30.835,38.174,29.402,38.174,27.418z M43.821,27.418c0-1.262-0.901-2.183-2.136-2.183
		c-1.233,0-2.136,0.921-2.136,2.183s0.902,2.183,2.136,2.183C42.92,29.602,43.821,28.681,43.821,27.418z"/>
	<path class="st1" d="M50.196,30.74l-1.784-2.373H47.52v2.373H46.19v-6.644h4.461c0.475,0,0.854,0.379,0.854,0.854v2.562
		c0,0.475-0.38,0.854-0.854,0.854h-0.674l1.784,2.373H50.196z M47.52,25.283v1.898h2.657v-1.898H47.52z"/>
	<path class="st1" d="M57.501,24.097v1.234h-2.012v5.41H54.16v-5.41h-2.012v-1.234H57.501z"/>
</g>
</svg>
