<?xml version="1.0" encoding="utf-8"?>
<!-- Generator: Adobe Illustrator 25.2.0, SVG Export Plug-In . SVG Version: 6.00 Build 0)  -->
<svg version="1.1" id="Layer_1" xmlns="http://www.w3.org/2000/svg" xmlns:xlink="http://www.w3.org/1999/xlink" x="0px" y="0px"
	 viewBox="0 0 128 128" style="enable-background:new 0 0 128 128;" xml:space="preserve">
<style type="text/css">
	.st0{display:none;fill:#29ABE2;stroke:#663399;stroke-width:1.27;stroke-miterlimit:10;}
	.st1{display:none;fill:none;stroke:#663399;stroke-miterlimit:10;}
	.st2{fill:none;stroke:#663399;stroke-width:1.5;stroke-miterlimit:10;}
	.st3{fill:#29ABE2;}
</style>
<rect x="0.5" y="0.5" class="st0" width="127" height="127"/>
<line class="st1" x1="64" y1="128" x2="64" y2="0"/>
<line class="st1" x1="128" y1="64" x2="0" y2="64"/>
<g>
	<g>
		<path class="st2" d="M29.5,26.9c0,8.3-6.3,14.4-15,14.4H4.1V12.5h10.5C23.3,12.5,29.5,18.5,29.5,26.9z M14.6,35.9c5.2,0,9-3.8,9-9
			s-3.8-9-9-9H9.8v18H14.6z"/>
		<path class="st2" d="M32,31.2c0-6,4.4-10.3,10.6-10.3s10.6,4.3,10.6,10.3c0,6-4.4,10.3-10.6,10.3S32,37.2,32,31.2z M49,31.2
			c0-3.8-2.7-6.6-6.5-6.6c-3.7,0-6.5,2.8-6.5,6.6c0,3.8,2.7,6.6,6.5,6.6C46.3,37.8,49,35,49,31.2z"/>
		<path class="st2" d="M58.8,41.2c-1.4,0-2.6-1.1-2.6-2.6V21.1h4v16.5h8.3V21.1h4v17.5c0,1.4-1.1,2.6-2.6,2.6H58.8z"/>
		<path class="st2" d="M92.5,28.7c0,1.1-0.7,2.1-1.7,2.4c1,0.3,1.7,1.3,1.7,2.4v5c0,1.4-1.1,2.6-2.6,2.6H76.6V21.1h13.3
			c1.4,0,2.6,1.1,2.6,2.6V28.7z M88.5,24.9h-7.9v4.6h7.9V24.9z M88.5,37.5v-4.6h-7.9v4.6H88.5z"/>
		<path class="st2" d="M98.6,41.2c-1.4,0-2.6-1.1-2.6-2.6V21.1h4v16.4h8.2v3.7H98.6z"/>
		<path class="st2" d="M125.2,24.9h-10.8v4.4h9V33h-9v4.4h10.8v3.7H113c-1.4,0-2.6-1.1-2.6-2.6V23.7c0-1.4,1.1-2.6,2.6-2.6h12.2
			V24.9z"/>
		<path class="st2" d="M30.6,45v6.2H20.5v27.1h-6.6V51.1H3.8V45H30.6z"/>
		<path class="st2" d="M47.8,78.2l-6.3-8.3h-3.1v8.3h-4.7V54.9h15.6c1.7,0,3,1.3,3,3v9c0,1.7-1.3,3-3,3H47l6.3,8.3H47.8z M38.4,59.1
			v6.6h9.3v-6.6H38.4z"/>
		<path class="st2" d="M72.2,78.2l-1.8-4.9h-9.8l-1.8,4.9H54l9-23.3h5.3l9,23.3H72.2z M62.1,69.2h6.8L65.5,60L62.1,69.2z"/>
		<path class="st2" d="M77.8,66.6c0-7,5.4-12,12.2-12c5,0,10.5,3.1,11.7,9h-4.9c-1.1-2.9-3.9-4.5-6.8-4.5c-4.1,0-7.4,3.1-7.4,7.5
			c0,4.4,3.3,7.5,7.4,7.5c2.9,0,5.8-1.6,6.8-4.5h4.9c-1.3,5.9-6.7,9-11.7,9C83.2,78.5,77.8,73.6,77.8,66.6z"/>
		<path class="st2" d="M124.8,78.2h-6l-9-10.6v10.6h-4.7V54.9h4.7v10.6l8.6-10.6h5.9l-9.5,11.5L124.8,78.2z"/>
		<path class="st2" d="M6.6,107.2c-1.7,0-3.1-1.4-3.1-3.1v-21h4.8v19.8h10V83.1h4.8v21c0,1.7-1.4,3.1-3.1,3.1H6.6z"/>
		<path class="st2" d="M40.8,92.5V99c0,1.2-1,2.2-2.2,2.2h-8v6h-3.4V90.3h11.4C39.9,90.3,40.8,91.3,40.8,92.5z M37.5,98.2v-4.8h-6.8
			v4.8H37.5z"/>
		<path class="st2" d="M59.7,97.2c0.8,5.4-2.3,10.3-8.4,10.3c-5.1,0-8.7-3.6-8.7-8.7c0-5.1,3.8-8.7,8.7-8.7c3.7,0,6.8,2,8.1,5.2h-4
			c-1-1.3-2.5-2-4.1-2c-2.9,0-5.2,2.2-5.2,5.4c0,3.2,2.3,5.4,5.2,5.4c2.4,0,4.5-1,5-3.9h-5.1v-3.1H59.7z"/>
		<path class="st2" d="M72.5,107.2l-4.5-6h-2.3v6h-3.4V90.3h11.4c1.2,0,2.2,1,2.2,2.2V99c0,1.2-1,2.2-2.2,2.2H72l4.5,6H72.5z
			 M65.7,93.3v4.8h6.8v-4.8H65.7z"/>
		<path class="st2" d="M90.3,107.2l-1.3-3.5h-7.2l-1.3,3.5h-3.5l6.5-16.9h3.9l6.5,16.9H90.3z M82.9,100.7h4.9L85.4,94L82.9,100.7z"
			/>
		<path class="st2" d="M110.6,98.8c0,4.9-3.7,8.5-8.8,8.5h-6.2V90.3h6.2C106.9,90.3,110.6,93.9,110.6,98.8z M101.8,104.1
			c3.1,0,5.3-2.2,5.3-5.3s-2.2-5.3-5.3-5.3H99v10.6H101.8z"/>
		<path class="st2" d="M125.6,93.4h-9.1v3.7h7.6v3.1h-7.6v3.7h9.1v3.1h-10.3c-1.2,0-2.2-1-2.2-2.2V92.5c0-1.2,1-2.2,2.2-2.2h10.3
			V93.4z"/>
	</g>
	<g>
		<path class="st3" d="M29.5,26.9c0,8.3-6.3,14.4-15,14.4H4.1V12.5h10.5C23.3,12.5,29.5,18.5,29.5,26.9z M14.6,35.9c5.2,0,9-3.8,9-9
			s-3.8-9-9-9H9.8v18H14.6z"/>
		<path class="st3" d="M32,31.2c0-6,4.4-10.3,10.6-10.3s10.6,4.3,10.6,10.3c0,6-4.4,10.3-10.6,10.3S32,37.2,32,31.2z M49,31.2
			c0-3.8-2.7-6.6-6.5-6.6c-3.7,0-6.5,2.8-6.5,6.6c0,3.8,2.7,6.6,6.5,6.6C46.3,37.8,49,35,49,31.2z"/>
		<path class="st3" d="M58.8,41.2c-1.4,0-2.6-1.1-2.6-2.6V21.1h4v16.5h8.3V21.1h4v17.5c0,1.4-1.1,2.6-2.6,2.6H58.8z"/>
		<path class="st3" d="M92.5,28.7c0,1.1-0.7,2.1-1.7,2.4c1,0.3,1.7,1.3,1.7,2.4v5c0,1.4-1.1,2.6-2.6,2.6H76.6V21.1h13.3
			c1.4,0,2.6,1.1,2.6,2.6V28.7z M88.5,24.9h-7.9v4.6h7.9V24.9z M88.5,37.5v-4.6h-7.9v4.6H88.5z"/>
		<path class="st3" d="M98.6,41.2c-1.4,0-2.6-1.1-2.6-2.6V21.1h4v16.4h8.2v3.7H98.6z"/>
		<path class="st3" d="M125.2,24.9h-10.8v4.4h9V33h-9v4.4h10.8v3.7H113c-1.4,0-2.6-1.1-2.6-2.6V23.7c0-1.4,1.1-2.6,2.6-2.6h12.2
			V24.9z"/>
		<path class="st3" d="M30.6,45v6.2H20.5v27.1h-6.6V51.1H3.8V45H30.6z"/>
		<path class="st3" d="M47.8,78.2l-6.3-8.3h-3.1v8.3h-4.7V54.9h15.6c1.7,0,3,1.3,3,3v9c0,1.7-1.3,3-3,3H47l6.3,8.3H47.8z M38.4,59.1
			v6.6h9.3v-6.6H38.4z"/>
		<path class="st3" d="M72.2,78.2l-1.8-4.9h-9.8l-1.8,4.9H54l9-23.3h5.3l9,23.3H72.2z M62.1,69.2h6.8L65.5,60L62.1,69.2z"/>
		<path class="st3" d="M77.8,66.6c0-7,5.4-12,12.2-12c5,0,10.5,3.1,11.7,9h-4.9c-1.1-2.9-3.9-4.5-6.8-4.5c-4.1,0-7.4,3.1-7.4,7.5
			c0,4.4,3.3,7.5,7.4,7.5c2.9,0,5.8-1.6,6.8-4.5h4.9c-1.3,5.9-6.7,9-11.7,9C83.2,78.5,77.8,73.6,77.8,66.6z"/>
		<path class="st3" d="M124.8,78.2h-6l-9-10.6v10.6h-4.7V54.9h4.7v10.6l8.6-10.6h5.9l-9.5,11.5L124.8,78.2z"/>
		<path class="st3" d="M6.6,107.2c-1.7,0-3.1-1.4-3.1-3.1v-21h4.8v19.8h10V83.1h4.8v21c0,1.7-1.4,3.1-3.1,3.1H6.6z"/>
		<path class="st3" d="M40.8,92.5V99c0,1.2-1,2.2-2.2,2.2h-8v6h-3.4V90.3h11.4C39.9,90.3,40.8,91.3,40.8,92.5z M37.5,98.2v-4.8h-6.8
			v4.8H37.5z"/>
		<path class="st3" d="M59.7,97.2c0.8,5.4-2.3,10.3-8.4,10.3c-5.1,0-8.7-3.6-8.7-8.7c0-5.1,3.8-8.7,8.7-8.7c3.7,0,6.8,2,8.1,5.2h-4
			c-1-1.3-2.5-2-4.1-2c-2.9,0-5.2,2.2-5.2,5.4c0,3.2,2.3,5.4,5.2,5.4c2.4,0,4.5-1,5-3.9h-5.1v-3.1H59.7z"/>
		<path class="st3" d="M72.5,107.2l-4.5-6h-2.3v6h-3.4V90.3h11.4c1.2,0,2.2,1,2.2,2.2V99c0,1.2-1,2.2-2.2,2.2H72l4.5,6H72.5z
			 M65.7,93.3v4.8h6.8v-4.8H65.7z"/>
		<path class="st3" d="M90.3,107.2l-1.3-3.5h-7.2l-1.3,3.5h-3.5l6.5-16.9h3.9l6.5,16.9H90.3z M82.9,100.7h4.9L85.4,94L82.9,100.7z"
			/>
		<path class="st3" d="M110.6,98.8c0,4.9-3.7,8.5-8.8,8.5h-6.2V90.3h6.2C106.9,90.3,110.6,93.9,110.6,98.8z M101.8,104.1
			c3.1,0,5.3-2.2,5.3-5.3s-2.2-5.3-5.3-5.3H99v10.6H101.8z"/>
		<path class="st3" d="M125.6,93.4h-9.1v3.7h7.6v3.1h-7.6v3.7h9.1v3.1h-10.3c-1.2,0-2.2-1-2.2-2.2V92.5c0-1.2,1-2.2,2.2-2.2h10.3
			V93.4z"/>
	</g>
</g>
<g>
</g>
<g>
</g>
<g>
</g>
<g>
</g>
<g>
</g>
<g>
</g>
<g>
</g>
<g>
</g>
<g>
</g>
<g>
</g>
<g>
</g>
<g>
</g>
<g>
</g>
<g>
</g>
<g>
</g>
</svg>
