<?xml version="1.0" encoding="utf-8"?>
<!-- Generator: Adobe Illustrator 25.2.0, SVG Export Plug-In . SVG Version: 6.00 Build 0)  -->
<svg version="1.1" id="Layer_1" xmlns="http://www.w3.org/2000/svg" xmlns:xlink="http://www.w3.org/1999/xlink" x="0px" y="0px"
	 viewBox="0 0 128 128" style="enable-background:new 0 0 128 128;" xml:space="preserve">
<style type="text/css">
	.st0{display:none;fill:#29ABE2;stroke:#663399;stroke-width:1.27;stroke-miterlimit:10;}
	.st1{display:none;fill:none;stroke:#663399;stroke-miterlimit:10;}
	.st2{fill:none;stroke:#663399;stroke-width:1.5;stroke-miterlimit:10;}
	.st3{fill:#29ABE2;}
</style>
<rect x="0.5" y="0.5" class="st0" width="127" height="127"/>
<line class="st1" x1="64" y1="128" x2="64" y2="0"/>
<line class="st1" x1="128" y1="64" x2="0" y2="64"/>
<g>
	<g>
		<path class="st2" d="M15.9,45.3h3.2v15.9h-3.2V50.9l-3.2,5.2H10l-3.2-5.2v10.3H3.6V45.3h3.2l4.5,7.5L15.9,45.3z"/>
		<path class="st2" d="M29.4,61.2l-0.9-2.3h-4.7L23,61.2h-2.3L25,50.1h2.5l4.3,11.1H29.4z M24.5,56.9h3.2l-1.6-4.4L24.5,56.9z"/>
		<path class="st2" d="M32.9,61.2v-9.7c0-0.8,0.6-1.4,1.4-1.4h0.8v11.1H32.9z"/>
		<path class="st2" d="M45,50.1h2.2v11.1H45l-5.4-7.5v7.5h-2.2V50.1h2.2l5.4,7.4V50.1z"/>
		<path class="st2" d="M57.6,50.1v2.1h-3.4v9.1H52v-9.1h-3.4v-2.1H57.6z"/>
		<path class="st2" d="M67.1,52.2h-6v2.5h5v2.1h-5v2.5h6v2.1h-6.8c-0.8,0-1.4-0.6-1.4-1.4v-8.3c0-0.8,0.6-1.4,1.4-1.4h6.8V52.2z"/>
		<path class="st2" d="M76.7,50.1h2.2v11.1h-2.2l-5.4-7.5v7.5h-2.2V50.1h2.2l5.4,7.4V50.1z"/>
		<path class="st2" d="M88.8,61.2l-0.9-2.3h-4.7l-0.9,2.3h-2.3l4.3-11.1h2.5l4.3,11.1H88.8z M83.9,56.9h3.2l-1.6-4.4L83.9,56.9z"/>
		<path class="st2" d="M99.9,50.1h2.2v11.1h-2.2l-5.4-7.5v7.5h-2.2V50.1h2.2l5.4,7.4V50.1z"/>
		<path class="st2" d="M103.8,55.7c0-3.3,2.6-5.7,5.8-5.7c2.4,0,5,1.5,5.6,4.3h-2.4c-0.5-1.4-1.9-2.1-3.3-2.1c-2,0-3.5,1.5-3.5,3.6
			s1.6,3.6,3.5,3.6c1.4,0,2.7-0.7,3.3-2.1h2.4c-0.6,2.8-3.2,4.3-5.6,4.3C106.4,61.4,103.8,59,103.8,55.7z"/>
		<path class="st2" d="M125.1,52.2h-6v2.5h5v2.1h-5v2.5h6v2.1h-6.8c-0.8,0-1.4-0.6-1.4-1.4v-8.3c0-0.8,0.6-1.4,1.4-1.4h6.8V52.2z"/>
		<path class="st2" d="M6.6,90.2c-1.7,0-3.1-1.4-3.1-3.1v-21h4.8v19.8h10V66.1h4.8v21c0,1.7-1.4,3.1-3.1,3.1H6.6z"/>
		<path class="st2" d="M40.8,75.5V82c0,1.2-1,2.2-2.2,2.2h-8v6h-3.4V73.3h11.4C39.9,73.3,40.8,74.3,40.8,75.5z M37.5,81.2v-4.8h-6.8
			v4.8H37.5z"/>
		<path class="st2" d="M59.7,80.2c0.8,5.4-2.3,10.3-8.4,10.3c-5.1,0-8.7-3.6-8.7-8.7c0-5.1,3.8-8.7,8.7-8.7c3.7,0,6.8,2,8.1,5.2h-4
			c-1-1.3-2.5-2-4.1-2c-2.9,0-5.2,2.2-5.2,5.4c0,3.2,2.3,5.4,5.2,5.4c2.4,0,4.5-1,5-3.9h-5.1v-3.1H59.7z"/>
		<path class="st2" d="M72.5,90.2l-4.5-6h-2.3v6h-3.4V73.3h11.4c1.2,0,2.2,1,2.2,2.2V82c0,1.2-1,2.2-2.2,2.2H72l4.5,6H72.5z
			 M65.7,76.3v4.8h6.8v-4.8H65.7z"/>
		<path class="st2" d="M90.3,90.2L89,86.7h-7.2l-1.3,3.5h-3.5l6.5-16.9h3.9L94,90.2H90.3z M82.9,83.7h4.9L85.4,77L82.9,83.7z"/>
		<path class="st2" d="M110.6,81.8c0,4.9-3.7,8.5-8.8,8.5h-6.2V73.3h6.2C106.9,73.3,110.6,76.9,110.6,81.8z M101.8,87.1
			c3.1,0,5.3-2.2,5.3-5.3s-2.2-5.3-5.3-5.3H99v10.6H101.8z"/>
		<path class="st2" d="M125.6,76.4h-9.1v3.7h7.6v3.1h-7.6v3.7h9.1v3.1h-10.3c-1.2,0-2.2-1-2.2-2.2V75.5c0-1.2,1-2.2,2.2-2.2h10.3
			V76.4z"/>
	</g>
	<g>
		<path class="st3" d="M15.9,45.3h3.2v15.9h-3.2V50.9l-3.2,5.2H10l-3.2-5.2v10.3H3.6V45.3h3.2l4.5,7.5L15.9,45.3z"/>
		<path class="st3" d="M29.4,61.2l-0.9-2.3h-4.7L23,61.2h-2.3L25,50.1h2.5l4.3,11.1H29.4z M24.5,56.9h3.2l-1.6-4.4L24.5,56.9z"/>
		<path class="st3" d="M32.9,61.2v-9.7c0-0.8,0.6-1.4,1.4-1.4h0.8v11.1H32.9z"/>
		<path class="st3" d="M45,50.1h2.2v11.1H45l-5.4-7.5v7.5h-2.2V50.1h2.2l5.4,7.4V50.1z"/>
		<path class="st3" d="M57.6,50.1v2.1h-3.4v9.1H52v-9.1h-3.4v-2.1H57.6z"/>
		<path class="st3" d="M67.1,52.2h-6v2.5h5v2.1h-5v2.5h6v2.1h-6.8c-0.8,0-1.4-0.6-1.4-1.4v-8.3c0-0.8,0.6-1.4,1.4-1.4h6.8V52.2z"/>
		<path class="st3" d="M76.7,50.1h2.2v11.1h-2.2l-5.4-7.5v7.5h-2.2V50.1h2.2l5.4,7.4V50.1z"/>
		<path class="st3" d="M88.8,61.2l-0.9-2.3h-4.7l-0.9,2.3h-2.3l4.3-11.1h2.5l4.3,11.1H88.8z M83.9,56.9h3.2l-1.6-4.4L83.9,56.9z"/>
		<path class="st3" d="M99.9,50.1h2.2v11.1h-2.2l-5.4-7.5v7.5h-2.2V50.1h2.2l5.4,7.4V50.1z"/>
		<path class="st3" d="M103.8,55.7c0-3.3,2.6-5.7,5.8-5.7c2.4,0,5,1.5,5.6,4.3h-2.4c-0.5-1.4-1.9-2.1-3.3-2.1c-2,0-3.5,1.5-3.5,3.6
			s1.6,3.6,3.5,3.6c1.4,0,2.7-0.7,3.3-2.1h2.4c-0.6,2.8-3.2,4.3-5.6,4.3C106.4,61.4,103.8,59,103.8,55.7z"/>
		<path class="st3" d="M125.1,52.2h-6v2.5h5v2.1h-5v2.5h6v2.1h-6.8c-0.8,0-1.4-0.6-1.4-1.4v-8.3c0-0.8,0.6-1.4,1.4-1.4h6.8V52.2z"/>
		<path class="st3" d="M6.6,90.2c-1.7,0-3.1-1.4-3.1-3.1v-21h4.8v19.8h10V66.1h4.8v21c0,1.7-1.4,3.1-3.1,3.1H6.6z"/>
		<path class="st3" d="M40.8,75.5V82c0,1.2-1,2.2-2.2,2.2h-8v6h-3.4V73.3h11.4C39.9,73.3,40.8,74.3,40.8,75.5z M37.5,81.2v-4.8h-6.8
			v4.8H37.5z"/>
		<path class="st3" d="M59.7,80.2c0.8,5.4-2.3,10.3-8.4,10.3c-5.1,0-8.7-3.6-8.7-8.7c0-5.1,3.8-8.7,8.7-8.7c3.7,0,6.8,2,8.1,5.2h-4
			c-1-1.3-2.5-2-4.1-2c-2.9,0-5.2,2.2-5.2,5.4c0,3.2,2.3,5.4,5.2,5.4c2.4,0,4.5-1,5-3.9h-5.1v-3.1H59.7z"/>
		<path class="st3" d="M72.5,90.2l-4.5-6h-2.3v6h-3.4V73.3h11.4c1.2,0,2.2,1,2.2,2.2V82c0,1.2-1,2.2-2.2,2.2H72l4.5,6H72.5z
			 M65.7,76.3v4.8h6.8v-4.8H65.7z"/>
		<path class="st3" d="M90.3,90.2L89,86.7h-7.2l-1.3,3.5h-3.5l6.5-16.9h3.9L94,90.2H90.3z M82.9,83.7h4.9L85.4,77L82.9,83.7z"/>
		<path class="st3" d="M110.6,81.8c0,4.9-3.7,8.5-8.8,8.5h-6.2V73.3h6.2C106.9,73.3,110.6,76.9,110.6,81.8z M101.8,87.1
			c3.1,0,5.3-2.2,5.3-5.3s-2.2-5.3-5.3-5.3H99v10.6H101.8z"/>
		<path class="st3" d="M125.6,76.4h-9.1v3.7h7.6v3.1h-7.6v3.7h9.1v3.1h-10.3c-1.2,0-2.2-1-2.2-2.2V75.5c0-1.2,1-2.2,2.2-2.2h10.3
			V76.4z"/>
	</g>
</g>
<g>
</g>
<g>
</g>
<g>
</g>
<g>
</g>
<g>
</g>
<g>
</g>
<g>
</g>
<g>
</g>
<g>
</g>
<g>
</g>
<g>
</g>
<g>
</g>
<g>
</g>
<g>
</g>
<g>
</g>
</svg>
