<?xml version="1.0" encoding="utf-8"?>
<!-- Generator: Adobe Illustrator 25.2.0, SVG Export Plug-In . SVG Version: 6.00 Build 0)  -->
<svg version="1.1" id="Layer_1" xmlns="http://www.w3.org/2000/svg" xmlns:xlink="http://www.w3.org/1999/xlink" x="0px" y="0px"
	 viewBox="0 0 128 128" style="enable-background:new 0 0 128 128;" xml:space="preserve">
<style type="text/css">
	.st0{display:none;fill:#29ABE2;stroke:#663399;stroke-width:1.27;stroke-miterlimit:10;}
	.st1{display:none;fill:none;stroke:#663399;stroke-miterlimit:10;}
	.st2{fill:none;stroke:#663399;stroke-width:1.5;stroke-miterlimit:10;}
	.st3{fill:#29ABE2;}
</style>
<rect x="0.5" y="0.5" class="st0" width="127" height="127"/>
<line class="st1" x1="64" y1="128" x2="64" y2="0"/>
<line class="st1" x1="128" y1="64" x2="0" y2="64"/>
<g>
	<g>
		<path class="st2" d="M3.3,61.2v-4.6h13.3v-5.5H6.5c-1.8,0-3.2-1.4-3.2-3.2v-8.3c0-1.8,1.4-3.2,3.2-3.2h15.1V41H8.2v5.5h10.1
			c1.8,0,3.2,1.4,3.2,3.2V58c0,1.8-1.4,3.2-3.2,3.2H3.3z"/>
		<path class="st2" d="M38,43.8V47h-5.3v14.2h-3.5V47H24v-3.2H38z"/>
		<path class="st2" d="M38.3,52.5c0-5.2,3.9-8.9,9.2-8.9s9.2,3.8,9.2,8.9c0,5.2-3.9,8.9-9.2,8.9S38.3,57.7,38.3,52.5z M53.1,52.5
			c0-3.3-2.4-5.7-5.6-5.7s-5.6,2.4-5.6,5.7c0,3.3,2.4,5.7,5.6,5.7S53.1,55.8,53.1,52.5z"/>
		<path class="st2" d="M69.8,61.2L65.1,55h-2.3v6.2h-3.5V43.8H71c1.2,0,2.2,1,2.2,2.2v6.7c0,1.2-1,2.2-2.2,2.2h-1.8l4.7,6.2H69.8z
			 M62.8,46.9v5h7v-5H62.8z"/>
		<path class="st2" d="M88.1,61.2l-1.3-3.6h-7.4L78,61.2h-3.6l6.7-17.4h4l6.7,17.4H88.1z M80.5,54.5h5.1l-2.5-6.9L80.5,54.5z"/>
		<path class="st2" d="M109.9,50.9c0.8,5.5-2.3,10.6-8.7,10.6c-5.2,0-9-3.8-9-8.9c0-5.2,3.9-8.9,8.9-8.9c3.8,0,7,2,8.3,5.4h-4.1
			c-1-1.3-2.6-2-4.2-2c-3,0-5.3,2.3-5.3,5.6c0,3.3,2.4,5.6,5.4,5.6c2.5,0,4.6-1,5.2-4h-5.2v-3.2H109.9z"/>
		<path class="st2" d="M125.4,47h-9.3v3.9h7.8v3.2h-7.8V58h9.3v3.2h-10.6c-1.2,0-2.2-1-2.2-2.2V46.1c0-1.2,1-2.2,2.2-2.2h10.6V47z"
			/>
		<path class="st2" d="M6.6,90.2c-1.7,0-3.1-1.4-3.1-3.1v-21h4.8v19.8h10V66.1h4.8v21c0,1.7-1.4,3.1-3.1,3.1H6.6z"/>
		<path class="st2" d="M40.8,75.5V82c0,1.2-1,2.2-2.2,2.2h-8v6h-3.4V73.3h11.4C39.9,73.3,40.8,74.3,40.8,75.5z M37.5,81.2v-4.8h-6.8
			v4.8H37.5z"/>
		<path class="st2" d="M59.7,80.2c0.8,5.4-2.3,10.3-8.4,10.3c-5.1,0-8.7-3.6-8.7-8.7c0-5.1,3.8-8.7,8.7-8.7c3.7,0,6.8,2,8.1,5.2h-4
			c-1-1.3-2.5-2-4.1-2c-2.9,0-5.2,2.2-5.2,5.4c0,3.2,2.3,5.4,5.2,5.4c2.4,0,4.5-1,5-3.9h-5.1v-3.1H59.7z"/>
		<path class="st2" d="M72.5,90.2l-4.5-6h-2.3v6h-3.4V73.3h11.4c1.2,0,2.2,1,2.2,2.2V82c0,1.2-1,2.2-2.2,2.2H72l4.5,6H72.5z
			 M65.7,76.3v4.8h6.8v-4.8H65.7z"/>
		<path class="st2" d="M90.3,90.2L89,86.7h-7.2l-1.3,3.5h-3.5l6.5-16.9h3.9L94,90.2H90.3z M82.9,83.7h4.9L85.4,77L82.9,83.7z"/>
		<path class="st2" d="M110.6,81.8c0,4.9-3.7,8.5-8.8,8.5h-6.2V73.3h6.2C106.9,73.3,110.6,76.9,110.6,81.8z M101.8,87.1
			c3.1,0,5.3-2.2,5.3-5.3s-2.2-5.3-5.3-5.3H99v10.6H101.8z"/>
		<path class="st2" d="M125.6,76.4h-9.1v3.7h7.6v3.1h-7.6v3.7h9.1v3.1h-10.3c-1.2,0-2.2-1-2.2-2.2V75.5c0-1.2,1-2.2,2.2-2.2h10.3
			V76.4z"/>
	</g>
	<g>
		<path class="st3" d="M3.3,61.2v-4.6h13.3v-5.5H6.5c-1.8,0-3.2-1.4-3.2-3.2v-8.3c0-1.8,1.4-3.2,3.2-3.2h15.1V41H8.2v5.5h10.1
			c1.8,0,3.2,1.4,3.2,3.2V58c0,1.8-1.4,3.2-3.2,3.2H3.3z"/>
		<path class="st3" d="M38,43.8V47h-5.3v14.2h-3.5V47H24v-3.2H38z"/>
		<path class="st3" d="M38.3,52.5c0-5.2,3.9-8.9,9.2-8.9s9.2,3.8,9.2,8.9c0,5.2-3.9,8.9-9.2,8.9S38.3,57.7,38.3,52.5z M53.1,52.5
			c0-3.3-2.4-5.7-5.6-5.7s-5.6,2.4-5.6,5.7c0,3.3,2.4,5.7,5.6,5.7S53.1,55.8,53.1,52.5z"/>
		<path class="st3" d="M69.8,61.2L65.1,55h-2.3v6.2h-3.5V43.8H71c1.2,0,2.2,1,2.2,2.2v6.7c0,1.2-1,2.2-2.2,2.2h-1.8l4.7,6.2H69.8z
			 M62.8,46.9v5h7v-5H62.8z"/>
		<path class="st3" d="M88.1,61.2l-1.3-3.6h-7.4L78,61.2h-3.6l6.7-17.4h4l6.7,17.4H88.1z M80.5,54.5h5.1l-2.5-6.9L80.5,54.5z"/>
		<path class="st3" d="M109.9,50.9c0.8,5.5-2.3,10.6-8.7,10.6c-5.2,0-9-3.8-9-8.9c0-5.2,3.9-8.9,8.9-8.9c3.8,0,7,2,8.3,5.4h-4.1
			c-1-1.3-2.6-2-4.2-2c-3,0-5.3,2.3-5.3,5.6c0,3.3,2.4,5.6,5.4,5.6c2.5,0,4.6-1,5.2-4h-5.2v-3.2H109.9z"/>
		<path class="st3" d="M125.4,47h-9.3v3.9h7.8v3.2h-7.8V58h9.3v3.2h-10.6c-1.2,0-2.2-1-2.2-2.2V46.1c0-1.2,1-2.2,2.2-2.2h10.6V47z"
			/>
		<path class="st3" d="M6.6,90.2c-1.7,0-3.1-1.4-3.1-3.1v-21h4.8v19.8h10V66.1h4.8v21c0,1.7-1.4,3.1-3.1,3.1H6.6z"/>
		<path class="st3" d="M40.8,75.5V82c0,1.2-1,2.2-2.2,2.2h-8v6h-3.4V73.3h11.4C39.9,73.3,40.8,74.3,40.8,75.5z M37.5,81.2v-4.8h-6.8
			v4.8H37.5z"/>
		<path class="st3" d="M59.7,80.2c0.8,5.4-2.3,10.3-8.4,10.3c-5.1,0-8.7-3.6-8.7-8.7c0-5.1,3.8-8.7,8.7-8.7c3.7,0,6.8,2,8.1,5.2h-4
			c-1-1.3-2.5-2-4.1-2c-2.9,0-5.2,2.2-5.2,5.4c0,3.2,2.3,5.4,5.2,5.4c2.4,0,4.5-1,5-3.9h-5.1v-3.1H59.7z"/>
		<path class="st3" d="M72.5,90.2l-4.5-6h-2.3v6h-3.4V73.3h11.4c1.2,0,2.2,1,2.2,2.2V82c0,1.2-1,2.2-2.2,2.2H72l4.5,6H72.5z
			 M65.7,76.3v4.8h6.8v-4.8H65.7z"/>
		<path class="st3" d="M90.3,90.2L89,86.7h-7.2l-1.3,3.5h-3.5l6.5-16.9h3.9L94,90.2H90.3z M82.9,83.7h4.9L85.4,77L82.9,83.7z"/>
		<path class="st3" d="M110.6,81.8c0,4.9-3.7,8.5-8.8,8.5h-6.2V73.3h6.2C106.9,73.3,110.6,76.9,110.6,81.8z M101.8,87.1
			c3.1,0,5.3-2.2,5.3-5.3s-2.2-5.3-5.3-5.3H99v10.6H101.8z"/>
		<path class="st3" d="M125.6,76.4h-9.1v3.7h7.6v3.1h-7.6v3.7h9.1v3.1h-10.3c-1.2,0-2.2-1-2.2-2.2V75.5c0-1.2,1-2.2,2.2-2.2h10.3
			V76.4z"/>
	</g>
</g>
<g>
</g>
<g>
</g>
<g>
</g>
<g>
</g>
<g>
</g>
<g>
</g>
<g>
</g>
<g>
</g>
<g>
</g>
<g>
</g>
<g>
</g>
<g>
</g>
<g>
</g>
<g>
</g>
<g>
</g>
</svg>
