<?xml version="1.0" encoding="utf-8"?>
<!-- Generator: Adobe Illustrator 25.2.0, SVG Export Plug-In . SVG Version: 6.00 Build 0)  -->
<svg version="1.1" id="Layer_1" xmlns="http://www.w3.org/2000/svg" xmlns:xlink="http://www.w3.org/1999/xlink" x="0px" y="0px"
	 viewBox="0 0 64 64" style="enable-background:new 0 0 64 64;" xml:space="preserve">
<style type="text/css">
	.st0{display:none;fill-rule:evenodd;clip-rule:evenodd;fill:#0AC1FF;stroke:#663399;stroke-width:0.25;stroke-miterlimit:10;}
	.st1{fill:#0AC1FF;stroke:#663399;stroke-width:0.25;stroke-miterlimit:10;}
</style>
<rect x="5.293" y="21.253" class="st0" width="53.414" height="21.494"/>
<g>
	<path class="st1" d="M9.467,42.746c-0.677,0-1.219-0.542-1.219-1.22v-8.265h1.896v7.791h3.93v-7.791h1.897v8.265
		c0,0.678-0.542,1.22-1.219,1.22H9.467z"/>
	<path class="st1" d="M22.901,36.957v2.562c0,0.475-0.38,0.854-0.854,0.854h-3.132v2.372h-1.329v-6.644h4.46
		C22.521,36.103,22.901,36.482,22.901,36.957z M21.572,39.188v-1.898h-2.657v1.898H21.572z"/>
	<path class="st1" d="M30.301,38.808c0.313,2.116-0.892,4.033-3.303,4.033c-1.993,0-3.436-1.433-3.436-3.416
		c0-1.993,1.5-3.417,3.417-3.417c1.442,0,2.676,0.769,3.17,2.06h-1.566c-0.38-0.513-0.987-0.778-1.604-0.778
		c-1.148,0-2.041,0.883-2.041,2.136c0,1.243,0.92,2.135,2.06,2.135c0.949,0,1.775-0.389,1.983-1.519h-1.993v-1.233H30.301z"/>
	<path class="st1" d="M35.348,42.746l-1.785-2.372h-0.892v2.372h-1.329v-6.644h4.46c0.475,0,0.854,0.38,0.854,0.854v2.562
		c0,0.475-0.38,0.854-0.854,0.854h-0.674l1.784,2.372H35.348z M32.671,37.289v1.898h2.657v-1.898H32.671z"/>
	<path class="st1" d="M42.33,42.746l-0.513-1.386h-2.81l-0.512,1.386h-1.367l2.562-6.644h1.519l2.562,6.644H42.33z M39.444,40.174
		h1.937l-0.968-2.619L39.444,40.174z"/>
	<path class="st1" d="M50.319,39.425c0,1.927-1.452,3.321-3.464,3.321h-2.421v-6.644h2.421
		C48.867,36.103,50.319,37.498,50.319,39.425z M46.855,41.513c1.215,0,2.088-0.873,2.088-2.088s-0.873-2.088-2.088-2.088h-1.092
		v4.176H46.855z"/>
	<path class="st1" d="M56.2,37.337h-3.559v1.471h2.989v1.233h-2.989v1.472H56.2v1.233h-4.033c-0.475,0-0.854-0.38-0.854-0.854
		v-4.936c0-0.475,0.38-0.854,0.854-0.854H56.2V37.337z"/>
</g>
<g>
	<path class="st1" d="M8.817,30.74v-1.762h5.068v-2.1h-3.849c-0.677,0-1.219-0.542-1.219-1.219v-3.185
		c0-0.677,0.542-1.219,1.219-1.219h5.745v1.761h-5.067v2.087h3.848c0.677,0,1.219,0.542,1.219,1.22v3.197
		c0,0.678-0.542,1.22-1.219,1.22H8.817z"/>
	<path class="st1" d="M22.066,24.097v1.234h-2.012v5.41h-1.329v-5.41h-2.012v-1.234H22.066z"/>
	<path class="st1" d="M22.187,27.418c0-1.984,1.471-3.417,3.512-3.417s3.512,1.433,3.512,3.417c0,1.983-1.471,3.417-3.512,3.417
		S22.187,29.402,22.187,27.418z M27.834,27.418c0-1.262-0.902-2.183-2.136-2.183s-2.135,0.921-2.135,2.183s0.901,2.183,2.135,2.183
		S27.834,28.681,27.834,27.418z"/>
	<path class="st1" d="M34.209,30.74l-1.784-2.373h-0.892v2.373h-1.329v-6.644h4.461c0.475,0,0.854,0.379,0.854,0.854v2.562
		c0,0.475-0.379,0.854-0.854,0.854h-0.674l1.784,2.373H34.209z M31.533,25.283v1.898h2.658v-1.898H31.533z"/>
	<path class="st1" d="M41.191,30.74l-0.513-1.386h-2.81l-0.512,1.386H35.99l2.562-6.644h1.519l2.562,6.644H41.191z M38.306,28.168
		h1.937l-0.968-2.619L38.306,28.168z"/>
	<path class="st1" d="M49.513,26.801c0.313,2.117-0.892,4.034-3.303,4.034c-1.993,0-3.436-1.433-3.436-3.417
		c0-1.993,1.5-3.417,3.417-3.417c1.442,0,2.677,0.769,3.17,2.06h-1.566c-0.379-0.512-0.986-0.778-1.604-0.778
		c-1.148,0-2.041,0.883-2.041,2.136c0,1.243,0.921,2.135,2.06,2.135c0.949,0,1.775-0.389,1.984-1.519h-1.993v-1.234H49.513z"/>
	<path class="st1" d="M55.441,25.331h-3.559v1.471h2.989v1.234h-2.989v1.471h3.559v1.234h-4.033c-0.475,0-0.854-0.38-0.854-0.854
		v-4.936c0-0.475,0.38-0.854,0.854-0.854h4.033V25.331z"/>
</g>
</svg>
