<?xml version="1.0" encoding="utf-8"?>
<!-- Generator: Adobe Illustrator 25.2.0, SVG Export Plug-In . SVG Version: 6.00 Build 0)  -->
<svg version="1.1" id="Layer_1" xmlns="http://www.w3.org/2000/svg" xmlns:xlink="http://www.w3.org/1999/xlink" x="0px" y="0px"
	 viewBox="0 0 64 64" style="enable-background:new 0 0 64 64;" xml:space="preserve">
<style type="text/css">
	.st0{fill-rule:evenodd;clip-rule:evenodd;fill:#909090;}
	.st1{fill-rule:evenodd;clip-rule:evenodd;fill:#6E6E6E;}
	.st2{fill-rule:evenodd;clip-rule:evenodd;fill:#575656;}
	.st3{fill-rule:evenodd;clip-rule:evenodd;fill:#B5B5B5;}
	.st4{fill-rule:evenodd;clip-rule:evenodd;fill:#575757;}
	.st5{fill-rule:evenodd;clip-rule:evenodd;fill:#D4D4D4;}
	.st6{fill-rule:evenodd;clip-rule:evenodd;fill:#FEFFFE;}
	.st7{fill-rule:evenodd;clip-rule:evenodd;fill:#877563;}
	.st8{fill-rule:evenodd;clip-rule:evenodd;}
	.st9{fill-rule:evenodd;clip-rule:evenodd;fill:#4A6168;}
	.st10{fill:#3C9442;stroke:#324565;stroke-width:0.2;}
</style>
<g id="grey">
	<path class="st0" d="M10.9,30.5l7-4l3.1,2.6l-7,4L10.9,30.5z M16.3,35.1l7-4l3.1,2.6l-7,4C19.4,37.7,16.3,35.1,16.3,35.1z
		 M20.1,25.2l1.5-0.9l3.1,2.6l-1.5,0.9C23.2,27.8,20.1,25.2,20.1,25.2z M25.6,29.8l1.5-0.9l3.1,2.6l-1.5,0.9
		C28.6,32.3,25.6,29.8,25.6,29.8z M31.1,34.4l1.5-0.9l3.1,2.6L34.1,37L31.1,34.4z M36.8,39.2l1.5-0.9l3.1,2.6l-1.5,0.9L36.8,39.2z
		 M37.6,43.1l-7,4l-3.1-2.6l7-4L37.6,43.1z M28.3,48.4l-2,1.1l-3-2.5l2-1.1L28.3,48.4z M22.6,43.6l-2,1.1l-3.1-2.6l2-1.1L22.6,43.6z
		 M21.8,39.8l7-4.1l3.1,2.6l-7,4.1C24.8,42.3,21.8,39.8,21.8,39.8z M11.7,34.4l-2,1.1l-3-2.5l2-1.1C8.6,31.8,11.7,34.4,11.7,34.4z
		 M17.1,39l-2,1.1L12,37.5l2-1.1L17.1,39z M34.5,53.5l-2,1.1L29.4,52l2-1.1L34.5,53.5z M33.6,49.7l7-4l3.1,2.6l-7,4L33.6,49.7z
		 M39.1,54.2l7-4l3.1,2.6l-7,4L39.1,54.2z M42.9,44.3l1.5-0.9l3.1,2.6L46,46.9L42.9,44.3z M48.4,48.9l1.5-0.9l3.1,2.6l-1.5,0.9
		L48.4,48.9z M39.9,58.1l-2,1.1l-3.1-2.6l2-1.1C36.9,55.5,39.9,58.1,39.9,58.1z"/>
	<path class="st1" d="M38.4,43.7l-7,4L30.6,47l7-4L38.4,43.7z M29.1,49.1l-2.8,1.6l-3.1-2.6V47l3.1,2.6l1.9-1.1L29.1,49.1z
		 M23.4,44.3l-2.8,1.6l-3.1-2.6v-1.1l3.1,2.6l1.9-1.1L23.4,44.3z M24.8,42.3l7-4.1l0.8,0.7l-7,4.1C25.6,43,24.8,42.3,24.8,42.3z
		 M12.5,35.1l-2.8,1.6l-3.1-2.6V33l3.1,2.6l1.9-1.1C11.7,34.4,12.5,35.1,12.5,35.1z M17.9,39.7l-2.8,1.6L12,38.7v-1.1l3.1,2.6
		l1.9-1.1L17.9,39.7z M13.8,33.2l7.1-4.1l0.8,0.7l-7.1,4.1C14.6,33.8,13.8,33.2,13.8,33.2z M19.3,37.8l7.1-4.1l0.8,0.7l-7.1,4.1
		L19.3,37.8z M23.2,27.8l1.5-0.9V28L24,28.4L23.2,27.8z M28.6,32.3l1.5-0.9v1.1L29.4,33L28.6,32.3z M34.1,37l1.5-0.9v1.1l-0.7,0.4
		L34.1,37z M39.9,41.7l1.5-0.9V42l-0.7,0.4C40.6,42.4,39.9,41.7,39.9,41.7z M51.4,51.5l1.5-0.9v1.1l-0.7,0.4L51.4,51.5z M35.3,54.2
		l-2.8,1.6l-3.1-2.6v-1.1l3.1,2.6l1.9-1.1C34.5,53.5,35.3,54.2,35.3,54.2z M40.7,58.8L38,60.4l-3.1-2.6v-1.1l3.1,2.6l1.9-1.1
		C39.9,58.1,40.7,58.8,40.7,58.8z M36.6,52.3l7.1-4.1l0.8,0.7L37.4,53L36.6,52.3z M42.1,56.9l7.1-4.1l0.8,0.7l-7.1,4.1L42.1,56.9z
		 M46,46.9l1.5-0.9v1.1l-0.7,0.4L46,46.9z"/>
	<path class="st2" d="M42.5,60.3l0.1-1.5l1.2-0.7l-0.1,1.5L42.5,60.3L42.5,60.3z M51.8,55l0.1-1.5l1.2-0.7L53,54.3L51.8,55L51.8,55z
		"/>
	<path class="st3" d="M7.5,29.3l1.2-0.7l35.1,29.5l-1.2,0.7L7.5,29.3z M16.8,24l1.2-0.7l35,29.5l-1.2,0.7C51.9,53.5,16.8,24,16.8,24
		z"/>
	<path class="st4" d="M35.9,48.3l-6-4.9v-0.3l6.1,5.1L35.9,48.3z M40.9,50.8V51l-6.7-1.5v-0.2L40.9,50.8z M25.5,33.8v0.3l-1.7,1
		l-0.2-0.2C23.6,34.9,25.5,33.8,25.5,33.8z M29.4,39.7V40l-2.1,1.2l-5.7-4.8l-1.9,1.1v-0.3l0,0l0,0l1.9-1.1l5.8,4.8
		C27.3,40.9,29.4,39.7,29.4,39.7z"/>
	<path class="st0" d="M30.5,26.8v0.9h-0.1c0,0.1-0.1,0.1-0.2,0.2c-0.3,0.2-0.7,0.1-0.9,0l-0.1-0.1l0,0V3.9h0.1
		c0-0.1,0.1-0.1,0.2-0.1c0.3-0.2,0.7-0.1,0.9,0l0.1,0.1l0,0v2.4L31.3,7V5.6h0.1c0-0.1,0.1-0.1,0.2-0.1c0.3-0.2,0.7-0.1,0.9,0
		l0.1,0.1l0,0v23.9h-0.1c0,0.1-0.1,0.1-0.2,0.2c-0.3,0.2-0.7,0.1-0.9,0l-0.1-0.1l0,0v-2C31.3,27.5,30.5,26.8,30.5,26.8z M30.5,7.8
		v4.5l0.9,0.7V8.5C31.3,8.5,30.5,7.8,30.5,7.8z M30.5,13.7v5.1l0.9,0.7v-5.1C31.3,14.5,30.5,13.7,30.5,13.7z M30.5,20.3v5l0.9,0.7
		v-5L30.5,20.3z M55.2,47.6v0.9h-0.1c0,0.1-0.1,0.1-0.2,0.2c-0.3,0.2-0.7,0.1-0.9,0l-0.1-0.1l0,0V24.7H54c0-0.1,0.1-0.1,0.2-0.1
		c0.3-0.2,0.7-0.1,0.9,0l0.1,0.1l0,0v2.4l0.9,0.7v-1.4h0.1c0-0.1,0.1-0.1,0.2-0.1c0.3-0.2,0.7-0.1,0.9,0l0.1,0.1l0,0v23.9h-0.1
		c0,0.1-0.1,0.1-0.2,0.2c-0.3,0.2-0.7,0.1-0.9,0l-0.1-0.1l0,0v-2C56.1,48.3,55.2,47.6,55.2,47.6z M55.2,34.5v5.1l0.9,0.7v-5.1
		L55.2,34.5z M55.2,41.1v5l0.9,0.7v-5L55.2,41.1z M55.2,28.6v4.5l0.9,0.7v-4.5C56.1,29.3,55.2,28.6,55.2,28.6z"/>
	<path class="st5" d="M15.4,17.2l-2,1.2l-1-0.8l2-1.2l16-9.3l1,0.8l-12.9,7.5l11.6-2.9l1,0.8l-8.4,2.1l-4.8,4l-1,0.5l-0.4-0.3
		l4.9-3.8C21.5,15.7,15.4,17.2,15.4,17.2z M40.2,37.9l-2,1.2l-1-0.8l2-1.2l16-9.3l1,0.8l-12.9,7.5L55,33.3l1,0.8l-8.4,2.1l-4.8,4
		l-1,0.5l-0.4-0.3l4.9-3.8C46.3,36.4,40.2,37.9,40.2,37.9z"/>
</g>
<g id="white">
	<path class="st6" d="M27.3,40.9l-5.8-4.8l-1.9,1.1l-0.8-4.9l6.7,1.5l-1.9,1.1l5.8,4.8C29.4,39.7,27.3,40.9,27.3,40.9z M32,41.9
		l6.1,5.1l1.9-1.1l0.8,4.9l-6.7-1.5l1.9-1.1l-6-5.1L32,41.9z"/>
</g>
<g id="brown">
	<path class="st7" d="M7.5,31v-1.6l35.1,29.5l-0.1,1.5L7.5,31z M16.8,25.6V24l35.1,29.5L51.8,55L16.8,25.6z"/>
</g>
<g id="black">
	<path class="st8" d="M38.2,37.8L16.9,19.9c0.3-0.2,0.6-0.3,0.9-0.5l0.6,0.5l20.7,17.4C39.1,37.2,38.2,37.8,38.2,37.8z M41.7,40.6
		L41.7,40.6l-2.6-2L40,38l2,1.7l-0.7,0.6L41.7,40.6z"/>
</g>
<g>
	<g id="blue_2_">
		<path class="st9" d="M50.6,2c0.3,0,0.5,0.2,0.7,0.5L52,3.2l0.7,0.7l0.7,0.7l2.9,2.9l2.9,2.9l0.7,0.7l0.7,0.7l0.7,0.7
			c0.2,0.2,0.3,0.4,0.3,0.7s-0.1,0.5-0.4,0.7l-1.5,1.5L59,16.1L53.1,22l-1.5,1.5L51,24.4c-0.2,0.2-0.4,0.4-0.7,0.4s-0.5-0.2-0.7-0.4
			L48.1,23l-0.7-0.7l-2.9-2.9l-2.9-2.9l-2.2-2.2c-0.2-0.2-0.4-0.4-0.4-0.7s0.1-0.5,0.4-0.7L49.9,2.5C50.1,2.3,50.3,2,50.6,2z"/>
	</g>
	<g id="violet_2_">
		<path class="st10" d="M50.6,0.4c-0.4,0-0.6,0.3-0.8,0.6L49,1.8l-5.1,5.1l-3.4,3.4L38,12.8c-0.3,0.3-0.5,0.4-0.5,0.8
			c0,0.4,0.2,0.5,0.5,0.8l2.4,2.4l3.3,3.3l4.1,4.1l0.8,0.8l0.8,0.8c0.3,0.3,0.4,0.5,0.8,0.5c0.4,0,0.6-0.2,0.8-0.5l0.8-0.8l0.8-0.8
			l9.3-9.3l0.8-0.8c0.3-0.3,0.5-0.4,0.5-0.8c0-0.4-0.2-0.5-0.4-0.8L62,11.7l-0.8-0.8l-7.3-7.3l-0.8-0.8L51.5,1
			C51.2,0.7,51,0.4,50.6,0.4z M50.6,2c0.3,0,0.5,0.2,0.7,0.5L52,3.2l0.7,0.7l0.7,0.7l2.9,2.9l2.9,2.9l0.7,0.7l0.7,0.7l0.7,0.7
			c0.2,0.2,0.3,0.4,0.3,0.7s-0.1,0.5-0.4,0.7l-1.5,1.5L59,16.1L53.1,22l-1.5,1.5L51,24.4c-0.2,0.2-0.4,0.4-0.7,0.4s-0.5-0.2-0.7-0.4
			L48.1,23l-0.7-0.7l-2.9-2.9l-2.9-2.9l-2.2-2.2c-0.2-0.2-0.4-0.4-0.4-0.7s0.1-0.5,0.4-0.7L49.9,2.5C50.1,2.3,50.3,2,50.6,2z"/>
	</g>
	<g id="white_5_">
		<path class="st6" d="M48.6,17.6l-0.5,1.8h-1.9l1.2-2.2c-0.5-0.3-0.8-0.6-0.8-1.2V9.3c0-0.8,0.6-1.4,1.3-1.4h1
			c0.2-0.3,0.5-0.5,0.8-0.5H51c0.3,0,0.6,0.2,0.8,0.5h1c0.7,0,1.3,0.6,1.3,1.4V16c0,0.5-0.5,0.9-0.9,1.2c-0.2,0.2-0.2,0.2,0,0
			l1.3,2.2h-1.9l-0.5-1.7c-0.5,0.1-1.1,0.2-1.7,0.2C49.9,17.8,49.3,17.8,48.6,17.6z M50.4,7.9c-0.4,0-0.7,0.3-0.7,0.7
			c0,0.4,0.3,0.7,0.7,0.7s0.7-0.3,0.7-0.7C51.1,8.2,50.8,7.9,50.4,7.9z M53.3,15.2c-0.1-0.2-0.2-0.3-0.4-0.3c-0.1,0-0.1,0-0.2,0
			l-0.8,0.3c-0.2,0.1-0.4,0.3-0.3,0.6l0,0c0.1,0.2,0.2,0.3,0.4,0.3c0.1,0,0.1,0,0.2,0l0.8-0.3C53.3,15.8,53.4,15.5,53.3,15.2
			L53.3,15.2z M49.3,15.8c0.1-0.2-0.1-0.5-0.3-0.6l-0.9-0.3H48c-0.2,0-0.4,0.1-0.4,0.3l0,0c-0.1,0.2,0.1,0.5,0.3,0.6l0.9,0.3h0.1
			C49.1,16.2,49.2,16,49.3,15.8L49.3,15.8z M48,9.8c-0.5,0-0.9,0.6-0.9,1.4v1.4c0,0.8,0.3,0.9,0.9,1.4c0,0,1.3,1.1,2.5,1.1
			s2.4-1.1,2.4-1.1c0.5-0.4,0.9-0.6,0.9-1.4v-1.4c0-0.8-0.4-1.4-0.9-1.4H48z"/>
	</g>
</g>
</svg>
