<?xml version="1.0" encoding="utf-8"?>
<!-- Generator: Adobe Illustrator 25.2.0, SVG Export Plug-In . SVG Version: 6.00 Build 0)  -->
<svg version="1.1" id="Layer_1" xmlns="http://www.w3.org/2000/svg" xmlns:xlink="http://www.w3.org/1999/xlink" x="0px" y="0px"
	 viewBox="0 0 64 64" style="enable-background:new 0 0 64 64;" xml:space="preserve">
<style type="text/css">
	.st0{fill-rule:evenodd;clip-rule:evenodd;fill:#909090;}
	.st1{fill-rule:evenodd;clip-rule:evenodd;fill:#6E6E6E;}
	.st2{fill-rule:evenodd;clip-rule:evenodd;fill:#575656;}
	.st3{fill-rule:evenodd;clip-rule:evenodd;fill:#B5B5B5;}
	.st4{fill-rule:evenodd;clip-rule:evenodd;fill:#575757;}
	.st5{fill-rule:evenodd;clip-rule:evenodd;fill:#D4D4D4;}
	.st6{fill-rule:evenodd;clip-rule:evenodd;fill:#FEFFFE;}
	.st7{fill-rule:evenodd;clip-rule:evenodd;fill:#877563;}
	.st8{fill-rule:evenodd;clip-rule:evenodd;}
	.st9{fill-rule:evenodd;clip-rule:evenodd;fill:#4A6168;}
	.st10{fill:#3C9442;stroke:#324565;stroke-width:0.2;}
	.st11{display:none;}
	.st12{display:inline;}
	.st13{fill-rule:evenodd;clip-rule:evenodd;fill:#3C9442;}
</style>
<g id="grey">
	<path class="st0" d="M10.9,30.5l7-4l3.1,2.6l-7,4L10.9,30.5z M16.3,35.1l7-4l3.1,2.6l-7,4C19.4,37.7,16.3,35.1,16.3,35.1z
		 M20.1,25.2l1.5-0.9l3.1,2.6l-1.5,0.9C23.2,27.8,20.1,25.2,20.1,25.2z M25.6,29.8l1.5-0.9l3.1,2.6l-1.5,0.9
		C28.6,32.3,25.6,29.8,25.6,29.8z M31.1,34.4l1.5-0.9l3.1,2.6L34.1,37C34.1,37,31.1,34.4,31.1,34.4z M36.8,39.2l1.5-0.9l3.1,2.6
		l-1.5,0.9L36.8,39.2z M37.6,43.1l-7,4l-3.1-2.6l7-4L37.6,43.1z M28.3,48.4l-2,1.1L23.3,47l2-1.1L28.3,48.4z M22.6,43.6l-2,1.1
		l-3.1-2.6l2-1.1L22.6,43.6z M21.8,39.8l7-4.1l3.1,2.6l-7,4.1C24.8,42.3,21.8,39.8,21.8,39.8z M11.7,34.4l-2,1.1L6.7,33l2-1.1
		C8.6,31.8,11.7,34.4,11.7,34.4z M17.1,39l-2,1.1l-3.1-2.6l2-1.1L17.1,39z M34.5,53.5l-2,1.1l-3.1-2.6l2-1.1L34.5,53.5z M33.6,49.7
		l7-4l3.1,2.6l-7,4L33.6,49.7z M39.1,54.2l7-4l3.1,2.6l-7,4L39.1,54.2z M42.9,44.3l1.5-0.9l3.1,2.6L46,46.9L42.9,44.3z M48.4,48.9
		l1.5-0.9l3.1,2.6l-1.5,0.9L48.4,48.9z M39.9,58.1l-2,1.1l-3.1-2.6l2-1.1C36.9,55.5,39.9,58.1,39.9,58.1z"/>
	<path class="st1" d="M38.4,43.7l-7,4l-0.8-0.7l7-4L38.4,43.7z M29.1,49.1l-2.8,1.6l-3.1-2.6V47l3.1,2.6l1.9-1.1L29.1,49.1z
		 M23.4,44.3l-2.8,1.6l-3.1-2.6v-1.1l3.1,2.6l1.9-1.1L23.4,44.3z M24.8,42.3l7-4.1l0.8,0.7l-7,4.1C25.6,43,24.8,42.3,24.8,42.3z
		 M12.5,35.1l-2.8,1.6l-3.1-2.6V33l3.1,2.6l1.9-1.1C11.7,34.4,12.5,35.1,12.5,35.1z M17.9,39.7l-2.8,1.6l-3.1-2.6v-1.1l3.1,2.6
		l1.9-1.1L17.9,39.7z M13.8,33.2l7.1-4.1l0.8,0.7l-7.1,4.1C14.6,33.8,13.8,33.2,13.8,33.2z M19.3,37.8l7.1-4.1l0.8,0.7l-7.1,4.1
		L19.3,37.8z M23.2,27.8l1.5-0.9V28L24,28.4L23.2,27.8z M28.6,32.3l1.5-0.9v1.1L29.4,33L28.6,32.3z M34.1,37l1.5-0.9v1.1l-0.7,0.4
		L34.1,37z M39.9,41.7l1.5-0.9V42l-0.7,0.4C40.6,42.4,39.9,41.7,39.9,41.7z M51.4,51.5l1.5-0.9v1.1l-0.7,0.4
		C52.2,52.1,51.4,51.5,51.4,51.5z M35.3,54.2l-2.8,1.6l-3.1-2.6v-1.1l3.1,2.6l1.9-1.1C34.5,53.5,35.3,54.2,35.3,54.2z M40.7,58.8
		L38,60.4l-3.1-2.6v-1.1l3.1,2.6l1.9-1.1C39.9,58.1,40.7,58.8,40.7,58.8z M36.6,52.3l7.1-4.1l0.8,0.7L37.4,53L36.6,52.3z M42.1,56.9
		l7.1-4.1l0.8,0.7l-7.1,4.1L42.1,56.9z M46,46.9l1.5-0.9v1.1l-0.7,0.4L46,46.9z"/>
	<path class="st2" d="M42.5,60.3l0.1-1.5l1.2-0.7l-0.1,1.5L42.5,60.3L42.5,60.3z M51.8,55l0.1-1.5l1.2-0.7l-0.1,1.5L51.8,55
		C51.8,55,51.8,55,51.8,55z"/>
	<path class="st3" d="M7.5,29.3l1.2-0.7l35.1,29.5l-1.2,0.7L7.5,29.3z M16.8,24l1.2-0.7L53,52.8l-1.2,0.7C51.9,53.5,16.8,24,16.8,24
		z"/>
	<path class="st4" d="M35.9,48.3l-6-4.9l0-0.3l6.1,5.1L35.9,48.3z M40.9,50.8l0,0.2l-6.7-1.5l0-0.2L40.9,50.8z M25.5,33.8l0,0.3
		l-1.7,1l-0.2-0.2C23.6,34.9,25.5,33.8,25.5,33.8z M29.4,39.7l0,0.3l-2.1,1.2l-5.7-4.8l-1.9,1.1v-0.3l0,0l0,0l1.9-1.1l5.8,4.8
		C27.3,40.9,29.4,39.7,29.4,39.7z"/>
	<path class="st0" d="M30.5,26.8v0.9h-0.1c0,0.1-0.1,0.1-0.2,0.2c-0.3,0.2-0.7,0.1-0.9,0c0,0-0.1-0.1-0.1-0.1h0V3.9h0.1
		c0-0.1,0.1-0.1,0.2-0.1c0.3-0.2,0.7-0.1,0.9,0c0,0,0.1,0.1,0.1,0.1h0v2.4L31.3,7V5.6h0.1c0-0.1,0.1-0.1,0.2-0.1
		c0.3-0.2,0.7-0.1,0.9,0c0,0,0.1,0.1,0.1,0.1h0v23.9h-0.1c0,0.1-0.1,0.1-0.2,0.2c-0.3,0.2-0.7,0.1-0.9,0c0,0-0.1-0.1-0.1-0.1h0v-2
		C31.3,27.5,30.5,26.8,30.5,26.8z M30.5,7.8v4.5l0.9,0.7V8.5C31.3,8.5,30.5,7.8,30.5,7.8z M30.5,13.7v5.1l0.9,0.7v-5.1
		C31.3,14.5,30.5,13.7,30.5,13.7z M30.5,20.3v5l0.9,0.7v-5L30.5,20.3z M55.2,47.6v0.9h-0.1c0,0.1-0.1,0.1-0.2,0.2
		c-0.3,0.2-0.7,0.1-0.9,0c0,0-0.1-0.1-0.1-0.1h0V24.7h0.1c0-0.1,0.1-0.1,0.2-0.1c0.3-0.2,0.7-0.1,0.9,0c0,0,0.1,0.1,0.1,0.1h0v2.4
		l0.9,0.7v-1.4h0.1c0-0.1,0.1-0.1,0.2-0.1c0.3-0.2,0.7-0.1,0.9,0c0,0,0.1,0.1,0.1,0.1h0v23.9h-0.1c0,0.1-0.1,0.1-0.2,0.2
		c-0.3,0.2-0.7,0.1-0.9,0c0,0-0.1-0.1-0.1-0.1h0v-2C56.1,48.3,55.2,47.6,55.2,47.6z M55.2,34.5v5.1l0.9,0.7v-5.1L55.2,34.5z
		 M55.2,41.1v5l0.9,0.7v-5L55.2,41.1z M55.2,28.6v4.5l0.9,0.7v-4.5C56.1,29.3,55.2,28.6,55.2,28.6z"/>
	<path class="st5" d="M15.4,17.2l-2,1.2l-1-0.8l2-1.2l16-9.3l1,0.8l-12.9,7.5l11.6-2.9l1,0.8l-8.4,2.1l-4.8,4l-1,0.5l-0.4-0.3
		l4.9-3.8C21.5,15.7,15.4,17.2,15.4,17.2z M40.2,37.9l-2,1.2l-1-0.8l2-1.2l16-9.3l1,0.8l-12.9,7.5L55,33.3l1,0.8l-8.4,2.1l-4.8,4
		l-1,0.5l-0.4-0.3l4.9-3.8C46.3,36.4,40.2,37.9,40.2,37.9z"/>
</g>
<g id="white">
	<path class="st6" d="M27.3,40.9l-5.8-4.8l-1.9,1.1l-0.8-4.9l6.7,1.5l-1.9,1.1l5.8,4.8C29.4,39.7,27.3,40.9,27.3,40.9z M32,41.9
		l6.1,5.1l1.9-1.1l0.8,4.9l-6.7-1.5l1.9-1.1L30,43.1L32,41.9z"/>
</g>
<g id="brown">
	<path class="st7" d="M7.5,31v-1.6l35.1,29.5l-0.1,1.5L7.5,31z M16.8,25.6V24l35.1,29.5L51.8,55L16.8,25.6z"/>
</g>
<g id="black">
	<path class="st8" d="M38.2,37.8L16.9,19.9c0.3-0.2,0.6-0.3,0.9-0.5l0.6,0.5l20.7,17.4C39.1,37.2,38.2,37.8,38.2,37.8z M41.7,40.6
		l-0.1,0.1l-2.5-2.1L40,38l2,1.7l-0.7,0.6C41.3,40.3,41.7,40.6,41.7,40.6z"/>
</g>
<g>
	<g id="blue_1_">
		<path class="st9" d="M56.4,1.4c0.2,0,0.3,0.1,0.4,0.3L57.1,2l0.4,0.4l0.4,0.4l1.5,1.5L61,5.9l0.4,0.4l0.4,0.4L62.2,7
			c0.1,0.1,0.2,0.2,0.2,0.4c0,0.2-0.1,0.3-0.2,0.4l-0.8,0.8L61,9l-3.2,3.2L57,13l-0.4,0.4c-0.1,0.1-0.2,0.2-0.4,0.2
			c-0.2,0-0.3-0.1-0.4-0.2L55,12.7l-0.4-0.4l-1.5-1.5l-1.5-1.5L50.4,8c-0.1-0.1-0.2-0.2-0.2-0.4c0-0.2,0.1-0.3,0.2-0.4L56,1.6
			C56.1,1.5,56.2,1.4,56.4,1.4z"/>
	</g>
	<g id="violet_1_">
		<path class="st10" d="M56.4,0.5c-0.2,0-0.3,0.2-0.5,0.3l-0.5,0.5L52.8,4l-1.8,1.8l-1.4,1.4c-0.2,0.2-0.3,0.2-0.3,0.5
			c0,0.2,0.1,0.3,0.2,0.4l1.3,1.3l1.8,1.8l2.2,2.2l0.4,0.4l0.4,0.4c0.1,0.1,0.2,0.3,0.4,0.3c0.2,0,0.3-0.1,0.5-0.3l0.5-0.5l0.5-0.5
			l5-5L63,7.9c0.2-0.2,0.3-0.2,0.3-0.5c0-0.2-0.1-0.3-0.2-0.4l-0.4-0.4l-0.4-0.4l-4-4l-0.4-0.4l-0.9-0.9C56.7,0.7,56.6,0.5,56.4,0.5
			z M56.4,1.4c0.2,0,0.3,0.1,0.4,0.3L57.1,2l0.4,0.4l0.4,0.4l1.5,1.5L61,5.9l0.4,0.4l0.4,0.4L62.2,7c0.1,0.1,0.2,0.2,0.2,0.4
			c0,0.2-0.1,0.3-0.2,0.4l-0.8,0.8L61,9l-3.2,3.2L57,13l-0.4,0.4c-0.1,0.1-0.2,0.2-0.4,0.2c-0.2,0-0.3-0.1-0.4-0.2L55,12.7l-0.4-0.4
			l-1.5-1.5l-1.5-1.5L50.4,8c-0.1-0.1-0.2-0.2-0.2-0.4c0-0.2,0.1-0.3,0.2-0.4L56,1.6C56.1,1.5,56.2,1.4,56.4,1.4z"/>
	</g>
	<g id="white_2_">
		<path class="st6" d="M55.3,9.8l-0.3,1h-1l0.7-1.2c-0.3-0.1-0.4-0.3-0.4-0.7V5.3c0-0.4,0.3-0.8,0.7-0.8h0.5
			c0.1-0.2,0.2-0.3,0.4-0.3h0.7c0.2,0,0.3,0.1,0.4,0.3h0.5c0.4,0,0.7,0.3,0.7,0.8v3.6c0,0.3-0.3,0.5-0.5,0.6c-0.1,0.1-0.1,0.1,0,0
			l0.7,1.2h-1l-0.3-0.9c-0.3,0.1-0.6,0.1-0.9,0.1C56,9.9,55.7,9.9,55.3,9.8z M56.3,4.5c-0.2,0-0.4,0.2-0.4,0.4
			c0,0.2,0.2,0.4,0.4,0.4s0.4-0.2,0.4-0.4C56.7,4.7,56.5,4.5,56.3,4.5z M57.8,8.5c0-0.1-0.1-0.2-0.2-0.2c0,0-0.1,0-0.1,0l-0.5,0.2
			c-0.1,0-0.2,0.2-0.2,0.3l0,0C57,8.9,57,9,57.1,9c0,0,0.1,0,0.1,0l0.5-0.2C57.8,8.8,57.9,8.6,57.8,8.5L57.8,8.5z M55.7,8.8
			c0-0.1,0-0.3-0.2-0.3L55,8.3c0,0,0,0-0.1,0c-0.1,0-0.2,0.1-0.2,0.2l0,0c0,0.1,0,0.3,0.2,0.3L55.4,9c0,0,0,0,0.1,0
			C55.5,9,55.6,8.9,55.7,8.8L55.7,8.8z M55,5.6c-0.3,0-0.5,0.3-0.5,0.7V7c0,0.4,0.2,0.5,0.5,0.7c0,0,0.7,0.6,1.4,0.6
			c0.7,0,1.3-0.6,1.3-0.6c0.3-0.2,0.5-0.3,0.5-0.7V6.3c0-0.4-0.2-0.7-0.5-0.7H55z"/>
	</g>
</g>
<g class="st11">
	<g id="green_1_" class="st12">
		<path class="st13" d="M55.5,12.7C52.9,11.9,51,9.5,51,6.6c0-3.5,2.9-6.4,6.4-6.4s6.4,2.9,6.4,6.4c0,2.8-1.8,5.1-4.2,6l-2,1.6
			L55.5,12.7z"/>
	</g>
	<g id="white_3_" class="st12">
		<path class="st6" d="M56.3,9.2l-0.3,1h-1.2L55.5,9C55.2,8.8,55,8.6,55,8.2v-4c0-0.5,0.4-0.8,0.9-0.8h0.6V3.1
			c0-0.3,0.3-0.6,0.6-0.6h0.9c0.3,0,0.6,0.3,0.6,0.6v0.3H59c0.5,0,0.9,0.4,0.9,0.8v4c0,0.3-0.3,0.5-0.6,0.7l0.8,1.3h-1.2l-0.3-1
			c-0.3,0.1-0.7,0.1-1,0.1C57.1,9.3,56.7,9.3,56.3,9.2z M59.5,5.1c0-0.3-0.3-0.6-0.6-0.6h-3.1c-0.3,0-0.6,0.3-0.6,0.6
			c0,0.3,0.3,0.6,0.6,0.6H59C59.3,5.7,59.5,5.4,59.5,5.1z M57.4,2.9c-0.2,0-0.4,0.2-0.4,0.4c0,0.2,0.2,0.4,0.4,0.4
			c0.2,0,0.4-0.2,0.4-0.4C57.8,3.1,57.6,2.9,57.4,2.9z M58.8,7.4c-0.2,0-0.4,0.2-0.4,0.5l0,0c0,0.2,0.2,0.4,0.5,0.4
			c0.2,0,0.4-0.2,0.4-0.5l0,0C59.2,7.5,59,7.4,58.8,7.4z M56.1,7.4c-0.2,0-0.4,0.2-0.4,0.5l0,0c0,0.2,0.2,0.4,0.5,0.4
			c0.2,0,0.4-0.2,0.4-0.5l0,0C56.5,7.5,56.3,7.4,56.1,7.4z"/>
	</g>
</g>
<g class="st11">
	<g id="green_2_" class="st12">
		<path class="st13" d="M42.5,12.7C39.9,11.9,38,9.5,38,6.6c0-3.5,2.9-6.4,6.4-6.4s6.4,2.9,6.4,6.4c0,2.8-1.8,5.1-4.2,6l-2,1.6
			L42.5,12.7z"/>
	</g>
	<g id="white_4_" class="st12">
		<path class="st6" d="M43.3,9.2l-0.3,1.1h-1.2L42.5,9C42.2,8.8,42,8.6,42,8.2V3.9C42,3.4,42.4,3,42.8,3h0.6
			c0.1-0.2,0.3-0.3,0.5-0.3h0.8c0.2,0,0.4,0.1,0.5,0.3H46c0.5,0,0.9,0.4,0.9,0.9v4.3c0,0.3-0.3,0.6-0.6,0.7c-0.2,0.1-0.2,0.1,0,0
			l0.8,1.4h-1.2l-0.3-1.1c-0.3,0.1-0.7,0.1-1,0.1C44.1,9.3,43.7,9.3,43.3,9.2z M44.4,3C44.2,3,44,3.2,44,3.5c0,0.3,0.2,0.5,0.4,0.5
			c0.2,0,0.4-0.2,0.4-0.5C44.8,3.2,44.6,3,44.4,3z M46.2,7.7c0-0.1-0.2-0.2-0.3-0.2c0,0,0,0,0,0l-0.5,0.2c-0.1,0.1-0.2,0.2-0.2,0.4
			l0,0c0,0.1,0.2,0.2,0.3,0.2c0,0,0,0,0,0L46,8.1C46.2,8,46.3,7.9,46.2,7.7L46.2,7.7z M43.7,8.1c0-0.2,0-0.3-0.2-0.4l-0.5-0.2
			c-0.1,0-0.3,0-0.3,0.2c0,0,0,0,0,0l0,0c0,0.2,0,0.3,0.2,0.4l0.5,0.2C43.5,8.3,43.6,8.2,43.7,8.1C43.7,8.1,43.7,8.1,43.7,8.1
			C43.7,8.1,43.7,8.1,43.7,8.1z M42.8,4.2c-0.3,0-0.6,0.4-0.6,0.9V6c0,0.5,0.2,0.6,0.6,0.9c0,0,0.8,0.7,1.6,0.7
			c0.8,0,1.5-0.7,1.5-0.7c0.3-0.2,0.6-0.4,0.6-0.9V5.1c0-0.5-0.3-0.9-0.6-0.9C46,4.2,42.8,4.2,42.8,4.2z"/>
	</g>
</g>
</svg>
