<?xml version="1.0" encoding="utf-8"?>
<!-- Generator: Adobe Illustrator 25.2.0, SVG Export Plug-In . SVG Version: 6.00 Build 0)  -->
<svg version="1.1" xmlns="http://www.w3.org/2000/svg" xmlns:xlink="http://www.w3.org/1999/xlink" x="0px" y="0px"
	 viewBox="0 0 128 128" style="enable-background:new 0 0 128 128;" xml:space="preserve">
<style type="text/css">
	.st0{display:none;}
	.st1{fill:#29ABE2;stroke:#663399;stroke-width:1.27;stroke-miterlimit:10;}
	.st2{fill:none;stroke:#663399;stroke-miterlimit:10;}
	.st3{display:inline;}
	.st4{fill:none;stroke:#663399;stroke-width:1.5;stroke-miterlimit:10;}
	.st5{fill:#29ABE2;}
	.st6{fill-rule:evenodd;clip-rule:evenodd;fill:#909090;}
	.st7{fill-rule:evenodd;clip-rule:evenodd;fill:#6E6E6E;}
	.st8{fill-rule:evenodd;clip-rule:evenodd;fill:#575656;}
	.st9{fill-rule:evenodd;clip-rule:evenodd;fill:#B5B5B5;}
	.st10{fill-rule:evenodd;clip-rule:evenodd;fill:#575757;}
	.st11{fill-rule:evenodd;clip-rule:evenodd;fill:#877563;}
	.st12{fill-rule:evenodd;clip-rule:evenodd;fill:#9A8A39;}
	.st13{fill-rule:evenodd;clip-rule:evenodd;fill:#FCF565;}
	.st14{fill-rule:evenodd;clip-rule:evenodd;fill:#F6D636;}
	.st15{fill-rule:evenodd;clip-rule:evenodd;fill:#FEFFFE;}
	.st16{fill-rule:evenodd;clip-rule:evenodd;fill:#4A6168;}
	.st17{fill:#F9682B;stroke:#324565;stroke-width:0.19;stroke-miterlimit:8;}
	.st18{fill-rule:evenodd;clip-rule:evenodd;fill:#F9682B;}
	.st19{fill:#444444;}
	.st20{fill:#929191;}
	.st21{fill-rule:evenodd;clip-rule:evenodd;fill:#C9C9C9;}
	.st22{fill-rule:evenodd;clip-rule:evenodd;fill:#2E2E2E;}
	.st23{fill-rule:evenodd;clip-rule:evenodd;fill:#EBEBEB;}
	.st24{fill-rule:evenodd;clip-rule:evenodd;}
	.st25{fill-rule:evenodd;clip-rule:evenodd;fill:#FFFFFF;}
	.st26{fill-rule:evenodd;clip-rule:evenodd;fill:#C54BFF;}
	.st27{fill-rule:evenodd;clip-rule:evenodd;fill:#F4F4F4;}
</style>
<g id="Text" class="st0">
	<rect x="0.5" y="0.5" class="st1" width="127" height="127"/>
	<line class="st2" x1="64" y1="128" x2="64" y2="0"/>
	<line class="st2" x1="128" y1="64" x2="0" y2="64"/>
	<g class="st3">
		<g>
			<path class="st4" d="M18.5,41.2L17,37.3H9l-1.5,3.9H3.7L11,22.3h4.3l7.3,18.9H18.5z M10.3,33.9h5.5L13,26.5L10.3,33.9z"/>
			<path class="st4" d="M35.6,34.6c0,3.8-2.9,6.6-6.9,6.6h-4.8V28h4.8C32.7,28,35.6,30.8,35.6,34.6z M28.7,38.8
				c2.4,0,4.2-1.7,4.2-4.2s-1.7-4.2-4.2-4.2h-2.2v8.3H28.7z"/>
			<path class="st4" d="M49.3,34.6c0,3.8-2.9,6.6-6.9,6.6h-4.8V28h4.8C46.4,28,49.3,30.8,49.3,34.6z M42.4,38.8
				c2.4,0,4.2-1.7,4.2-4.2s-1.7-4.2-4.2-4.2h-2.2v8.3H42.4z"/>
			<path class="st4" d="M51.3,41.2V29.7c0-0.9,0.8-1.7,1.7-1.7H54v13.2H51.3z"/>
			<path class="st4" d="M66.3,28v2.5h-4v10.8h-2.6V30.4h-4V28H66.3z"/>
			<path class="st4" d="M67.9,41.2V29.7c0-0.9,0.8-1.7,1.7-1.7h0.9v13.2H67.9z"/>
			<path class="st4" d="M72.6,34.6c0-4,2.9-6.8,7-6.8c4.1,0,7,2.9,7,6.8c0,4-2.9,6.8-7,6.8C75.5,41.4,72.6,38.6,72.6,34.6z
				 M83.8,34.6c0-2.5-1.8-4.3-4.3-4.3c-2.5,0-4.3,1.8-4.3,4.3c0,2.5,1.8,4.3,4.3,4.3C82,38.9,83.8,37.1,83.8,34.6z"/>
			<path class="st4" d="M97.6,28h2.6v13.2h-2.6l-6.4-8.9v8.9h-2.6V28h2.6l6.4,8.8V28z"/>
			<path class="st4" d="M112,41.2l-1-2.8h-5.6l-1,2.8h-2.7l5.1-13.2h3l5.1,13.2H112z M106.2,36.1h3.9l-1.9-5.2L106.2,36.1z"/>
			<path class="st4" d="M117.8,41.2c-0.9,0-1.7-0.8-1.7-1.7V28h2.6v10.8h5.4v2.5H117.8z"/>
			<path class="st4" d="M3.9,77.2v-6h17.4V64H8.1c-2.3,0-4.2-1.9-4.2-4.2V48.9c0-2.3,1.9-4.2,4.2-4.2h19.7v6H10.4v7.1h13.2
				c2.3,0,4.2,1.9,4.2,4.2v11c0,2.3-1.9,4.2-4.2,4.2H3.9z"/>
			<path class="st4" d="M32.6,77.2V57.4c0-1.6,1.3-2.9,2.9-2.9h1.6v22.7H32.6z"/>
			<path class="st4" d="M57.3,54.5h4.5v22.7h-4.5l-11-15.3v15.3h-4.5V54.5h4.5l11,15V54.5z"/>
			<path class="st4" d="M88.4,63.7C89.4,71,85.3,77.5,77,77.5c-6.8,0-11.8-4.9-11.8-11.7c0-6.8,5.1-11.7,11.7-11.7
				c4.9,0,9.2,2.6,10.9,7h-5.4c-1.3-1.8-3.4-2.7-5.5-2.7c-3.9,0-7,3-7,7.3c0,4.3,3.2,7.3,7,7.3c3.2,0,6.1-1.3,6.8-5.2H77v-4.2H88.4z
				"/>
			<path class="st4" d="M94.8,77.2c-1.6,0-2.9-1.3-2.9-2.9V54.5h4.5V73h9.3v4.2H94.8z"/>
			<path class="st4" d="M125,58.7h-12.2v5H123V68h-10.2v5H125v4.2h-13.8c-1.6,0-2.9-1.3-2.9-2.9V57.4c0-1.6,1.3-2.9,2.9-2.9H125
				V58.7z"/>
			<path class="st4" d="M26.7,80.9v5.3h-8.6v23h-5.7v-23H3.9v-5.3H26.7z"/>
			<path class="st4" d="M41.3,109.2l-5.3-7.1h-2.7v7.1h-4V89.4h13.3c1.4,0,2.5,1.1,2.5,2.5v7.6c0,1.4-1.1,2.5-2.5,2.5h-2l5.3,7.1
				H41.3z M33.4,93v5.7h7.9V93H33.4z"/>
			<path class="st4" d="M62.2,109.2l-1.5-4.1h-8.4l-1.5,4.1h-4.1l7.6-19.8h4.5l7.6,19.8H62.2z M53.6,101.6h5.8l-2.9-7.8L53.6,101.6z
				"/>
			<path class="st4" d="M66.9,99.3c0-5.9,4.6-10.2,10.4-10.2c4.3,0,8.9,2.6,10,7.6h-4.2c-0.9-2.5-3.3-3.8-5.8-3.8
				c-3.5,0-6.3,2.6-6.3,6.4c0,3.7,2.8,6.4,6.3,6.4c2.5,0,4.9-1.3,5.8-3.8h4.2c-1.1,5-5.7,7.6-10,7.6
				C71.5,109.5,66.9,105.3,66.9,99.3z"/>
			<path class="st4" d="M106.9,109.2h-5.1l-7.6-9v9h-4V89.4h4v9l7.4-9h5l-8.1,9.8L106.9,109.2z"/>
			<path class="st4" d="M108.7,109.2v-3.7h10.6v-4.4h-8c-1.4,0-2.5-1.1-2.5-2.5V92c0-1.4,1.1-2.5,2.5-2.5h12v3.7h-10.6v4.4h8
				c1.4,0,2.5,1.1,2.5,2.5v6.7c0,1.4-1.1,2.5-2.5,2.5H108.7z"/>
		</g>
		<g>
			<path class="st5" d="M18.5,41.2L17,37.3H9l-1.5,3.9H3.7L11,22.3h4.3l7.3,18.9H18.5z M10.3,33.9h5.5L13,26.5L10.3,33.9z"/>
			<path class="st5" d="M35.6,34.6c0,3.8-2.9,6.6-6.9,6.6h-4.8V28h4.8C32.7,28,35.6,30.8,35.6,34.6z M28.7,38.8
				c2.4,0,4.2-1.7,4.2-4.2s-1.7-4.2-4.2-4.2h-2.2v8.3H28.7z"/>
			<path class="st5" d="M49.3,34.6c0,3.8-2.9,6.6-6.9,6.6h-4.8V28h4.8C46.4,28,49.3,30.8,49.3,34.6z M42.4,38.8
				c2.4,0,4.2-1.7,4.2-4.2s-1.7-4.2-4.2-4.2h-2.2v8.3H42.4z"/>
			<path class="st5" d="M51.3,41.2V29.7c0-0.9,0.8-1.7,1.7-1.7H54v13.2H51.3z"/>
			<path class="st5" d="M66.3,28v2.5h-4v10.8h-2.6V30.4h-4V28H66.3z"/>
			<path class="st5" d="M67.9,41.2V29.7c0-0.9,0.8-1.7,1.7-1.7h0.9v13.2H67.9z"/>
			<path class="st5" d="M72.6,34.6c0-4,2.9-6.8,7-6.8c4.1,0,7,2.9,7,6.8c0,4-2.9,6.8-7,6.8C75.5,41.4,72.6,38.6,72.6,34.6z
				 M83.8,34.6c0-2.5-1.8-4.3-4.3-4.3c-2.5,0-4.3,1.8-4.3,4.3c0,2.5,1.8,4.3,4.3,4.3C82,38.9,83.8,37.1,83.8,34.6z"/>
			<path class="st5" d="M97.6,28h2.6v13.2h-2.6l-6.4-8.9v8.9h-2.6V28h2.6l6.4,8.8V28z"/>
			<path class="st5" d="M112,41.2l-1-2.8h-5.6l-1,2.8h-2.7l5.1-13.2h3l5.1,13.2H112z M106.2,36.1h3.9l-1.9-5.2L106.2,36.1z"/>
			<path class="st5" d="M117.8,41.2c-0.9,0-1.7-0.8-1.7-1.7V28h2.6v10.8h5.4v2.5H117.8z"/>
			<path class="st5" d="M3.9,77.2v-6h17.4V64H8.1c-2.3,0-4.2-1.9-4.2-4.2V48.9c0-2.3,1.9-4.2,4.2-4.2h19.7v6H10.4v7.1h13.2
				c2.3,0,4.2,1.9,4.2,4.2v11c0,2.3-1.9,4.2-4.2,4.2H3.9z"/>
			<path class="st5" d="M32.6,77.2V57.4c0-1.6,1.3-2.9,2.9-2.9h1.6v22.7H32.6z"/>
			<path class="st5" d="M57.3,54.5h4.5v22.7h-4.5l-11-15.3v15.3h-4.5V54.5h4.5l11,15V54.5z"/>
			<path class="st5" d="M88.4,63.7C89.4,71,85.3,77.5,77,77.5c-6.8,0-11.8-4.9-11.8-11.7c0-6.8,5.1-11.7,11.7-11.7
				c4.9,0,9.2,2.6,10.9,7h-5.4c-1.3-1.8-3.4-2.7-5.5-2.7c-3.9,0-7,3-7,7.3c0,4.3,3.2,7.3,7,7.3c3.2,0,6.1-1.3,6.8-5.2H77v-4.2H88.4z
				"/>
			<path class="st5" d="M94.8,77.2c-1.6,0-2.9-1.3-2.9-2.9V54.5h4.5V73h9.3v4.2H94.8z"/>
			<path class="st5" d="M125,58.7h-12.2v5H123V68h-10.2v5H125v4.2h-13.8c-1.6,0-2.9-1.3-2.9-2.9V57.4c0-1.6,1.3-2.9,2.9-2.9H125
				V58.7z"/>
			<path class="st5" d="M26.7,80.9v5.3h-8.6v23h-5.7v-23H3.9v-5.3H26.7z"/>
			<path class="st5" d="M41.3,109.2l-5.3-7.1h-2.7v7.1h-4V89.4h13.3c1.4,0,2.5,1.1,2.5,2.5v7.6c0,1.4-1.1,2.5-2.5,2.5h-2l5.3,7.1
				H41.3z M33.4,93v5.7h7.9V93H33.4z"/>
			<path class="st5" d="M62.2,109.2l-1.5-4.1h-8.4l-1.5,4.1h-4.1l7.6-19.8h4.5l7.6,19.8H62.2z M53.6,101.6h5.8l-2.9-7.8L53.6,101.6z
				"/>
			<path class="st5" d="M66.9,99.3c0-5.9,4.6-10.2,10.4-10.2c4.3,0,8.9,2.6,10,7.6h-4.2c-0.9-2.5-3.3-3.8-5.8-3.8
				c-3.5,0-6.3,2.6-6.3,6.4c0,3.7,2.8,6.4,6.3,6.4c2.5,0,4.9-1.3,5.8-3.8h4.2c-1.1,5-5.7,7.6-10,7.6
				C71.5,109.5,66.9,105.3,66.9,99.3z"/>
			<path class="st5" d="M106.9,109.2h-5.1l-7.6-9v9h-4V89.4h4v9l7.4-9h5l-8.1,9.8L106.9,109.2z"/>
			<path class="st5" d="M108.7,109.2v-3.7h10.6v-4.4h-8c-1.4,0-2.5-1.1-2.5-2.5V92c0-1.4,1.1-2.5,2.5-2.5h12v3.7h-10.6v4.4h8
				c1.4,0,2.5,1.1,2.5,2.5v6.7c0,1.4-1.1,2.5-2.5,2.5H108.7z"/>
		</g>
	</g>
</g>
<g id="Subway" class="st0">
	<g class="st3">
		<g id="grey_1_">
			<path class="st6" d="M18.7,50.9l-5.1,2.9l-8-6.7l5.1-2.9L18.7,50.9z M32.9,62.8l-5.1,2.9l-8-6.7l5.1-2.9L32.9,62.8z M30.8,52.8
				L49,42.2l8,6.7L38.7,59.5L30.8,52.8z M40.7,26.9l4-2.3l8,6.7l-4,2.3C48.6,33.6,40.7,26.9,40.7,26.9z M54.9,38.8l4-2.3l8,6.7
				l-4,2.3L54.9,38.8z M84.2,63.4l3.9-2.3l8,6.7l-3.9,2.3L84.2,63.4z M86.2,73.5L68.1,84l-8-6.7l18.2-10.5L86.2,73.5z M62.1,87.4
				L57,90.3l-8-6.7l5.1-2.9L62.1,87.4z M45,64.9l18.3-10.6l8,6.7L53,71.6C53,71.6,45,64.9,45,64.9z M16.5,40.8l18.3-10.6l8,6.7
				L24.5,47.5L16.5,40.8z M69.2,50.9l4-2.3l8,6.7l-4,2.3C77.2,57.6,69.2,50.9,69.2,50.9z M47.2,74.9l-5.1,2.9l-8-6.7l5.1-2.9
				L47.2,74.9z M78.1,100.8l-5.1,2.9L65,97l5.1-2.9L78.1,100.8z M90.2,102.6l18.3-10.6l8,6.7l-18.3,10.6L90.2,102.6z M92.3,112.7
				l-5.1,2.9l-8-6.7l5.1-2.9L92.3,112.7z M100.1,76.7l4-2.3l8,6.7l-4,2.3L100.1,76.7z M114.3,88.7l4-2.3l8,6.7l-4,2.3L114.3,88.7z
				 M75.9,90.7l18.3-10.6l8,6.7L83.9,97.4C83.9,97.4,75.9,90.7,75.9,90.7z"/>
			<path class="st7" d="M20.2,52.7L13,56.8l-8-6.7v-3l8,6.7l5.1-2.9L20.2,52.7z M35.9,64.6l-7.2,4.1l-8-6.7v-3l8,6.7l5.1-2.9
				C33.8,62.8,35.9,64.6,35.9,64.6z M24.2,47.7L42.8,37l2.1,1.8L26.3,49.4L24.2,47.7z M38.5,59.6L57,48.9l2.1,1.8L40.6,61.4
				L38.5,59.6z M48.1,33.6l4-2.3v3l-1.9,1.1L48.1,33.6z M63.7,45.5l4-2.3v3l-1.9,1.1C65.8,47.3,63.7,45.5,63.7,45.5z M76.7,57.6
				l4-2.3v3l-1.9,1.1L76.7,57.6z M92.5,70.1l3.9-2.3v3l-1.9,1C94.5,71.7,92.5,70.1,92.5,70.1z M88.3,75.2L70.2,85.7L68.1,84
				l18.2-10.5L88.3,75.2z M64.5,89.1l-7.2,4.1l-8-6.7v-3l8,6.7l5.1-2.9L64.5,89.1z M48.9,76.6l-7.2,4.1l-8-6.7v-3l8,6.7l5.1-2.9
				L48.9,76.6z M53,71.6l18.3-10.6l2.1,1.8L55.1,73.3C55.1,73.3,53,71.6,53,71.6z M93.2,114.4l-7.2,4.1l-8-6.7v-3l8,6.7l5.1-2.9
				L93.2,114.4z M83.6,97.5l18.5-10.7l2.1,1.8L85.7,99.3L83.6,97.5z M97.9,109.5l18.5-10.7l2.1,1.8L100,111.2L97.9,109.5z M108,83.4
				l4-2.3v3l-1.9,1.1L108,83.4z M121.1,95.4l4-2.3v3l-1.9,1.1L121.1,95.4z M80.2,102.5l-7.2,4.1l-8-6.7v-3l8,6.7l5.1-2.9L80.2,102.5
				z"/>
			<path class="st8" d="M99.1,118.5l0.3-3.9l3-1.8l-0.3,4L99.1,118.5C99.1,118.5,99.1,118.5,99.1,118.5z M123.2,104.6l0.3-3.9l3-1.8
				l-0.3,4L123.2,104.6L123.2,104.6z"/>
			<path class="st9" d="M7.8,37.7l3-1.7l91.6,76.9l-3,1.7C99.4,114.5,7.8,37.7,7.8,37.7z M31.9,23.7l3-1.7l91.6,76.9l-3,1.7
				C123.5,100.6,31.9,23.7,31.9,23.7z"/>
			<path class="st10" d="M63.4,56.6l0,0.6l-4.5,2.7l-0.5-0.4C58.4,59.5,63.4,56.6,63.4,56.6z M83.3,83.6l1.6-0.6l7.7,8.6v0.4
				l-17.4-3.6l0-0.6l5-2.1L52.9,63.4L48,66.3v-0.8l5.2-3l23.9,19.9L83.3,83.6z"/>
		</g>
		<g id="brown_1_">
			<path class="st11" d="M7.7,41.9v-4.3l91.6,76.9l-0.3,4C98.9,118.5,7.7,41.9,7.7,41.9z M31.2,28v-4.3l91.6,76.9l-0.3,4L31.2,28z"
				/>
		</g>
		<g id="yellow_1_">
			<path class="st12" d="M93.7,118.9l0.3-3.9l3-1.8l-0.3,4L93.7,118.9C93.7,118.9,93.7,118.9,93.7,118.9z"/>
			<path class="st13" d="M2.5,42.4v-4.3L94.1,115l-0.3,4L2.5,42.4z"/>
			<path class="st14" d="M1.5,38.1l3-1.7l91.6,76.9l-3,1.7L1.5,38.1z"/>
		</g>
		<g id="white_1_">
			<path class="st15" d="M53,62.6l-5,2.9L46,52.8l17.5,3.8l-5,2.9l24,19.8l-5.4,3.1L53,62.6z"/>
		</g>
		<g id="white_2_">
			<path class="st15" d="M85.5,81.8l5-2.9l2.1,12.7l-17.5-3.8l5-2.9l-24-19.8l5.4-3.1L85.5,81.8z"/>
		</g>
	</g>
	<g>
		<g id="blue_1_" class="st3">
			<path class="st16" d="M102,5c0.7,0,0.9,0.4,1.4,0.9l1.4,1.4l1.4,1.4l1.4,1.4l5.4,5.4l5.4,5.4l1.4,1.4l1.4,1.4l1.4,1.4
				c0.5,0.5,0.7,0.7,0.7,1.4c0,0.7-0.2,0.9-0.7,1.4l-2.8,2.8l-1.4,1.4l-11.2,11.2l-2.8,2.8l-1.4,1.4c-0.5,0.5-0.7,0.8-1.4,0.8
				c-0.6,0-0.9-0.3-1.4-0.7l-2.7-2.7l-1.4-1.4l-5.4-5.4L85,32.4l-4.1-4.1c-0.5-0.5-0.7-0.7-0.7-1.4c0-0.7,0.3-0.9,0.7-1.4L100.6,6
				C101,5.5,101.3,5,102,5z"/>
		</g>
		<g id="violet_1_" class="st3">
			<path class="st17" d="M102,2c-0.7,0-1.1,0.6-1.6,1.1l-1.6,1.6l-9.6,9.6l-6.4,6.4l-4.8,4.8c-0.5,0.5-0.9,0.8-0.9,1.6
				c0,0.7,0.4,1,0.9,1.5l4.6,4.6l6.2,6.2l7.7,7.7l1.5,1.5l1.5,1.5c0.5,0.5,0.8,0.9,1.5,0.9c0.8,0,1.1-0.5,1.6-1l1.6-1.6l1.6-1.6
				l17.6-17.6l1.6-1.6c0.5-0.5,0.9-0.8,0.9-1.6c0-0.7-0.3-1-0.8-1.5l-1.5-1.5l-1.5-1.5L108.2,7.7l-1.5-1.5l-3.1-3.1
				C103.1,2.6,102.8,2,102,2z M102,5c0.7,0,0.9,0.4,1.4,0.9l1.4,1.4l1.4,1.4l1.4,1.4l5.4,5.4l5.4,5.4l1.4,1.4l1.4,1.4l1.4,1.4
				c0.5,0.5,0.7,0.7,0.7,1.4c0,0.7-0.2,0.9-0.7,1.4l-2.8,2.8l-1.4,1.4l-11.2,11.2l-2.8,2.8l-1.4,1.4c-0.5,0.5-0.7,0.8-1.4,0.8
				c-0.6,0-0.9-0.3-1.4-0.7l-2.7-2.7l-1.4-1.4l-5.4-5.4L85,32.4l-4.1-4.1c-0.5-0.5-0.7-0.7-0.7-1.4c0-0.7,0.3-0.9,0.7-1.4L100.6,6
				C101,5.5,101.3,5,102,5z"/>
		</g>
		<g id="white_3_" class="st3">
			<path id="white1_1_" class="st15" d="M95.7,34.1c-1.5-0.4-2.5-1.1-2.5-2.3V20.5c0.1-1.4,1.4-2.5,2.9-2.4h1v-0.9
				c0-1,0.8-1.8,1.8-1.8h5.3c1,0,1.7,0.8,1.8,1.8v0.9h1c1.5-0.1,2.9,1,2.9,2.4v11.3c0,1-1.7,1.9-2.5,2.2c-0.3,0.1,2.5,3.7,2.5,3.7
				h-4.2l-1.1-3.1c-1,0.1-1.9,0.2-2.9,0.2c-1.1,0-2.1-0.1-3.1-0.2l-1.1,3.1h-4.2L95.7,34.1z M103.5,16.3c-0.8,0-1.5,0.6-1.5,1.3
				s0.7,1.3,1.5,1.3c0.8,0,1.5-0.6,1.5-1.3S104.3,16.3,103.5,16.3z M99.6,16.3c-0.8,0-1.5,0.6-1.5,1.3s0.7,1.3,1.5,1.3
				c0.8,0,1.5-0.6,1.5-1.3S100.4,16.3,99.6,16.3z M101.8,28.5c-1,0-1.8,0.7-1.8,1.6v0c0,0.9,0.8,1.6,1.8,1.6h0c1,0,1.8-0.7,1.8-1.6
				v0C103.5,29.2,102.7,28.5,101.8,28.5L101.8,28.5z M108.9,21.6c0-1-0.8-1.8-1.8-1.8H96c-1,0-1.7,0.8-1.8,1.8v1.8
				c0,1,0.8,1.7,1.8,1.8h11.2c1,0,1.7-0.8,1.8-1.8V21.6z"/>
		</g>
	</g>
	<g class="st3">
		<g id="orange_1_">
			<path class="st18" d="M93.6,51C83.4,47.8,75.9,38.3,75.9,27c0-13.8,11.2-25,25-25s25,11.2,25,25c0,10.8-6.9,20-16.5,23.5
				l-7.7,6.4L93.6,51z"/>
		</g>
		<path id="white_4_" class="st15" d="M93.4,35.5c-2-0.5-3.2-1.4-3.2-3V18c0.1-1.8,1.8-3.2,3.8-3.1h1.3v-1.2c0-1.2,1-2.3,2.3-2.3
			h6.8c1.2,0,2.2,1,2.3,2.3v1.2h1.3c2-0.1,3.7,1.3,3.8,3.1v14.5c0,1.3-2.1,2.4-3.2,2.9c-0.3,0.2-0.6,0.2-0.6,0.2
			c1-0.2,0.2-0.1,0.6-0.2l3.2,4.8h-5.5l-1.4-4c-1.2,0.2-2.5,0.3-3.7,0.3c-1.4,0-2.7-0.1-4-0.3l-1.4,4h-5.5
			C90.3,40.2,93.4,35.5,93.4,35.5z M103.5,12.6c-1,0-1.9,0.8-1.9,1.7c0,0.9,0.8,1.7,1.9,1.7c1,0,1.9-0.8,1.9-1.7
			C105.4,13.4,104.5,12.6,103.5,12.6z M98.4,12.6c-1,0-1.9,0.8-1.9,1.7c0,0.9,0.8,1.7,1.9,1.7c1,0,1.9-0.8,1.9-1.7
			C100.3,13.4,99.5,12.6,98.4,12.6z M101.2,28.3c-1.3,0-2.3,1-2.3,2.1v0c0,1.1,1,2.1,2.3,2.1h0c1.3,0,2.3-1,2.3-2.1v0
			C103.5,29.2,102.5,28.3,101.2,28.3C101.2,28.3,101.2,28.3,101.2,28.3z M110.4,19.4c0-1.2-1-2.3-2.3-2.3H93.8c-1.2,0-2.2,1-2.3,2.3
			v2.4c0,1.2,1,2.2,2.3,2.3h14.4c1.2,0,2.2-1,2.3-2.3V19.4z"/>
	</g>
</g>
<g id="Layer_3">
	<g>
		<g>
			<g id="grey_2_">
				<path class="st19" d="M9.7,74.8L69,124.6l44.4-25.6v-5.3L69.5,119L9.6,68.7L9.7,74.8z"/>
				<path class="st20" d="M9.6,68.7L69.5,119l43.9-25.3L53.5,43.4L9.6,68.7z"/>
				<path class="st21" d="M37,53.1l59.9,50.2l-2.6,1.5L34.4,54.6C34.4,54.6,37,53.1,37,53.1z M50.5,45.3l59.9,50.2l-2.6,1.5
					L47.9,46.8C47.9,46.8,50.5,45.3,50.5,45.3z M13.9,66.4l59.9,50.2l-2.6,1.5L11.3,67.9C11.3,67.9,13.9,66.4,13.9,66.4z M27.4,58.6
					l59.9,50.2l-2.6,1.5L24.8,60.1C24.8,60.1,27.4,58.6,27.4,58.6z"/>
				<path class="st22" d="M49.3,45.9l59.9,50.2l-0.9,0.5L48.4,46.5L49.3,45.9z M36.5,53.4l59.9,50.2l-0.9,0.5L35.5,53.9L36.5,53.4z
					 M26.2,59.3l59.9,50.2l-0.9,0.5L25.3,59.8L26.2,59.3z M13.4,66.7l59.9,50.2l-0.9,0.5L12.4,67.2C12.4,67.2,13.4,66.7,13.4,66.7z"
					/>
				<path class="st23" d="M110.1,90.6V51.1h0.2c0.1-0.1,0.2-0.2,0.3-0.3c0.6-0.3,1.4-0.3,1.8,0.1c0.1,0.1,0.1,0.1,0.2,0.2h0.1v0.3
					c0,0,0,0.1,0,0.1v38.7c0,0,0,0.1,0,0.1v0.4h-0.1c-0.1,0.1-0.2,0.2-0.4,0.3c-0.6,0.3-1.4,0.3-1.8-0.1
					C110.3,90.8,110.2,90.7,110.1,90.6C110.2,90.6,110.1,90.6,110.1,90.6z"/>
				<path class="st23" d="M58.9,120.2V80.6h0.2c0.1-0.1,0.2-0.2,0.3-0.3c0.6-0.3,1.4-0.3,1.8,0.1c0.1,0.1,0.1,0.1,0.2,0.2h0.1v39.5
					h-0.1c-0.1,0.1-0.2,0.2-0.4,0.3c-0.6,0.3-1.4,0.3-1.8-0.1C59.1,120.3,59,120.3,58.9,120.2C59,120.2,58.9,120.2,58.9,120.2z"/>
				<path class="st23" d="M16.5,84.6V45h0.2c0.1-0.1,0.2-0.2,0.3-0.3c0.6-0.3,1.4-0.3,1.8,0.1c0.1,0.1,0.1,0.1,0.2,0.2H19v39.5h-0.1
					c-0.1,0.1-0.2,0.2-0.4,0.3c-0.6,0.3-1.4,0.3-1.8-0.1C16.6,84.7,16.6,84.6,16.5,84.6L16.5,84.6z"/>
				<path class="st23" d="M67.6,55V15.5h0.2c0.1-0.1,0.2-0.2,0.3-0.3c0.6-0.3,1.4-0.3,1.8,0.1c0.1,0.1,0.1,0.1,0.2,0.2h0.1V55H70
					c-0.1,0.1-0.2,0.2-0.4,0.3c-0.6,0.3-1.4,0.3-1.8-0.1C67.8,55.2,67.8,55.1,67.6,55L67.6,55z"/>
				<path class="st24" d="M51.3,32.1c-0.4-0.4-0.5-1-0.1-1.4c0.4-0.4,1-0.5,1.4-0.1l41.6,34.9c0.4,0.4,0.5,1,0.1,1.4
					c-0.4,0.4-1,0.5-1.4,0.1l0,0L51.3,32.1z"/>
				<path class="st24" d="M27.9,44.1c-0.4-0.4-0.5-1-0.1-1.4c0.4-0.4,1-0.5,1.4-0.1l41.7,35c0.4,0.4,0.5,1,0.1,1.4
					c-0.4,0.4-1,0.5-1.4,0.1L27.9,44.1z"/>
				<path class="st10" d="M60.8,84.2c-0.5,0.2-1.1-0.2-1.3-0.7c-0.2-0.5,0.2-1.1,0.7-1.3c0,0,20.1-8.7,24.9-11.5
					c4.9-2.8,24.8-17.2,24.8-17.2c0.4-0.3,1.1-0.3,1.4,0.2c0.3,0.4,0.3,1-0.1,1.4c0,0-20.1,14.6-25.1,17.4
					C81.2,75.3,60.8,84.2,60.8,84.2z"/>
				<path class="st10" d="M67.4,17.8c0.4-0.3,1.1-0.3,1.4,0.2c0.3,0.4,0.3,1-0.1,1.4c0,0-20.1,14.5-25.1,17.4
					c-5,2.9-25.5,11.8-25.5,11.8c-0.5,0.2-1.1-0.2-1.3-0.7c-0.2-0.5,0.2-1.1,0.7-1.3c0,0,20.2-8.8,25-11.6
					C47.6,32.2,67.4,17.8,67.4,17.8z"/>
			</g>
			<g id="white_5_">
				<path class="st25" d="M77.8,76.5l2.7,2.2l-3.6,2.1l-3-2.5C75.2,77.7,76.6,77.1,77.8,76.5z M64.3,74.6l-0.5,0.3l-0.1-0.8
					L64.3,74.6z M72.2,76.9l-4.8-4l-1.2,0.7l-2.8-2.4l-0.5-4.7l11.7,2.3L71,70.8l5.2,4.3C74.8,75.7,73.5,76.3,72.2,76.9z M55.2,93.4
					l-11.7-2.3l3.6-2.1l-9.6-8l3.6-2.1l9.5,8l3.6-2.1C54.3,84.9,55.2,93.4,55.2,93.4z"/>
			</g>
		</g>
	</g>
	<g>
		<g id="violet_2_">
			<path class="st26" d="M96.3,47C86.9,44.1,80,35.4,80,25c0-12.7,10.3-23,23-23s23,10.3,23,23c0,9.9-6.3,18.4-15.1,21.6l-7.1,5.9
				L96.3,47z"/>
		</g>
		<g id="white_6_">
			<path class="st27" d="M99.1,34.1l-1.6,4.3h-4.6l3.1-4.3H94c-0.5,0-0.9-0.4-0.9-0.9V15.7c0-1.4,1.2-2.6,2.6-2.6h14.8
				c1.4,0,2.6,1.2,2.6,2.6v17.5c0,0.5-0.4,0.9-0.9,0.9h-2.4l3.1,4.3h-4.6l-1.6-4.3H99.1z M111.4,19.6c0-1.2-1-2.1-2.1-2.1H96.7
				c-1.2,0-2.1,1-2.1,2.1v4.5c0,1.2,1,2.1,2.1,2.1h12.6c1.2,0,2.1-1,2.1-2.1C111.4,24.1,111.4,19.6,111.4,19.6z M96.3,27.8
				L96.3,27.8c-1,0.1-1.7,0.9-1.6,1.8c0.1,0.9,0.9,1.6,1.9,1.6l0,0c0.9-0.1,1.6-0.9,1.6-1.8C98.1,28.4,97.3,27.8,96.3,27.8z
				 M109.7,27.8L109.7,27.8c-1,0.1-1.7,0.9-1.6,1.8c0.1,0.9,0.9,1.6,1.9,1.6l0,0c0.9-0.1,1.6-0.9,1.6-1.8
				C111.5,28.4,110.6,27.8,109.7,27.8z M99.2,11.4h-1.7V8.8h11.3v2.6h-1.7v1.7h-2.6v-1.7h-2.6v1.7h-2.6
				C99.2,13.1,99.2,11.4,99.2,11.4z"/>
		</g>
	</g>
	<g>
	</g>
	<g>
	</g>
	<g>
	</g>
	<g>
	</g>
	<g>
	</g>
	<g>
	</g>
	<g>
	</g>
	<g>
	</g>
	<g>
	</g>
	<g>
	</g>
	<g>
	</g>
	<g>
	</g>
	<g>
	</g>
	<g>
	</g>
	<g>
	</g>
</g>
</svg>
