<?xml version="1.0" encoding="utf-8"?>
<!-- Generator: Adobe Illustrator 25.2.0, SVG Export Plug-In . SVG Version: 6.00 Build 0)  -->
<svg version="1.1" id="Layer_1" xmlns="http://www.w3.org/2000/svg" xmlns:xlink="http://www.w3.org/1999/xlink" x="0px" y="0px"
	 viewBox="0 0 64 64" style="enable-background:new 0 0 64 64;" xml:space="preserve">
<style type="text/css">
	.st0{display:none;fill-rule:evenodd;clip-rule:evenodd;fill:#0AC1FF;stroke:#663399;stroke-width:0.25;stroke-miterlimit:10;}
	.st1{fill:#0AC1FF;stroke:#663399;stroke-width:0.25;stroke-miterlimit:10;}
</style>
<rect x="5.293" y="21.253" class="st0" width="53.414" height="21.494"/>
<g>
	<path class="st1" d="M19.488,33.262v1.761h-2.873v7.724h-1.896v-7.724h-2.873v-1.761H19.488z"/>
	<path class="st1" d="M24.403,42.746l-1.784-2.372h-0.892v2.372h-1.329v-6.644h4.46c0.475,0,0.854,0.38,0.854,0.854v2.562
		c0,0.475-0.38,0.854-0.854,0.854h-0.674l1.784,2.372H24.403z M21.727,37.289v1.898h2.657v-1.898H21.727z"/>
	<path class="st1" d="M31.386,42.746l-0.513-1.386h-2.809l-0.513,1.386h-1.367l2.562-6.644h1.519l2.562,6.644H31.386z
		 M28.501,40.174h1.936l-0.968-2.619L28.501,40.174z"/>
	<path class="st1" d="M32.968,39.425c0-1.993,1.538-3.417,3.483-3.417c1.434,0,2.99,0.873,3.351,2.562h-1.404
		c-0.304-0.835-1.11-1.281-1.946-1.281c-1.177,0-2.106,0.883-2.106,2.136s0.93,2.135,2.106,2.135c0.836,0,1.643-0.445,1.946-1.281
		h1.404c-0.36,1.689-1.917,2.562-3.351,2.562C34.506,42.841,32.968,41.418,32.968,39.425z"/>
	<path class="st1" d="M46.395,42.746h-1.708l-2.562-3.037v3.037h-1.329v-6.644h1.329v3.027l2.468-3.027h1.689l-2.725,3.274
		L46.395,42.746z"/>
	<path class="st1" d="M46.99,42.746v-1.233h3.55v-1.472h-2.695c-0.475,0-0.854-0.379-0.854-0.854v-2.23
		c0-0.475,0.38-0.854,0.854-0.854h4.024v1.234h-3.55v1.461h2.695c0.475,0,0.854,0.38,0.854,0.854v2.24
		c0,0.474-0.38,0.854-0.854,0.854H46.99z"/>
</g>
<g>
	<path class="st1" d="M9.152,30.74l-0.731-1.979H4.41L3.678,30.74H1.727l3.659-9.485h2.168l3.658,9.485H9.152z M5.033,27.068h2.764
		l-1.382-3.74L5.033,27.068z"/>
	<path class="st1" d="M17.763,27.418c0,1.927-1.452,3.322-3.464,3.322h-2.42v-6.644h2.42C16.311,24.097,17.763,25.492,17.763,27.418
		z M14.299,29.506c1.215,0,2.088-0.873,2.088-2.088s-0.873-2.088-2.088-2.088h-1.091v4.176H14.299z"/>
	<path class="st1" d="M24.641,27.418c0,1.927-1.452,3.322-3.464,3.322h-2.42v-6.644h2.42C23.189,24.097,24.641,25.492,24.641,27.418
		z M21.177,29.506c1.215,0,2.088-0.873,2.088-2.088s-0.873-2.088-2.088-2.088h-1.091v4.176H21.177z"/>
	<path class="st1" d="M25.635,30.74v-5.79c0-0.475,0.379-0.854,0.854-0.854h0.475v6.644H25.635z"/>
	<path class="st1" d="M33.15,24.097v1.234h-2.012v5.41H29.81v-5.41h-2.012v-1.234H33.15z"/>
	<path class="st1" d="M33.982,30.74v-5.79c0-0.475,0.38-0.854,0.854-0.854h0.475v6.644H33.982z"/>
	<path class="st1" d="M36.308,27.418c0-1.984,1.472-3.417,3.512-3.417c2.041,0,3.512,1.433,3.512,3.417
		c0,1.983-1.471,3.417-3.512,3.417C37.779,30.835,36.308,29.402,36.308,27.418z M41.955,27.418c0-1.262-0.901-2.183-2.136-2.183
		c-1.233,0-2.136,0.921-2.136,2.183s0.902,2.183,2.136,2.183C41.054,29.602,41.955,28.681,41.955,27.418z"/>
	<path class="st1" d="M48.88,24.097h1.329v6.644H48.88l-3.227-4.47v4.47h-1.329v-6.644h1.329l3.227,4.394V24.097z"/>
	<path class="st1" d="M56.071,30.74l-0.513-1.386h-2.81l-0.513,1.386H50.87l2.562-6.644h1.519l2.562,6.644H56.071z M53.186,28.168
		h1.937l-0.968-2.619L53.186,28.168z"/>
	<path class="st1" d="M59.029,30.74c-0.475,0-0.854-0.38-0.854-0.854v-5.79h1.329v5.41h2.705v1.234H59.029z"/>
</g>
</svg>
