<?xml version="1.0" encoding="utf-8"?>
<!-- Generator: Adobe Illustrator 25.2.0, SVG Export Plug-In . SVG Version: 6.00 Build 0)  -->
<svg version="1.1" id="Layer_1" xmlns="http://www.w3.org/2000/svg" xmlns:xlink="http://www.w3.org/1999/xlink" x="0px" y="0px"
	 viewBox="0 0 64 64" style="enable-background:new 0 0 64 64;" xml:space="preserve">
<style type="text/css">
	.st0{display:none;fill-rule:evenodd;clip-rule:evenodd;fill:#0AC1FF;stroke:#663399;stroke-width:0.25;stroke-miterlimit:10;}
	.st1{fill:#0AC1FF;stroke:#663399;stroke-width:0.25;stroke-miterlimit:10;}
</style>
<rect x="5.293" y="21.253" class="st0" width="53.414" height="21.494"/>
<g>
	<path class="st1" d="M9.467,42.746c-0.677,0-1.219-0.542-1.219-1.22v-8.265h1.896v7.791h3.93v-7.791h1.897v8.265
		c0,0.678-0.542,1.22-1.219,1.22H9.467z"/>
	<path class="st1" d="M22.901,36.957v2.562c0,0.475-0.38,0.854-0.854,0.854h-3.132v2.372h-1.329v-6.644h4.46
		C22.521,36.103,22.901,36.482,22.901,36.957z M21.572,39.188v-1.898h-2.657v1.898H21.572z"/>
	<path class="st1" d="M30.301,38.808c0.313,2.116-0.892,4.033-3.303,4.033c-1.993,0-3.436-1.433-3.436-3.416
		c0-1.993,1.5-3.417,3.417-3.417c1.442,0,2.676,0.769,3.17,2.06h-1.566c-0.38-0.513-0.987-0.778-1.604-0.778
		c-1.148,0-2.041,0.883-2.041,2.136c0,1.243,0.92,2.135,2.06,2.135c0.949,0,1.775-0.389,1.983-1.519h-1.993v-1.233H30.301z"/>
	<path class="st1" d="M35.348,42.746l-1.785-2.372h-0.892v2.372h-1.329v-6.644h4.46c0.475,0,0.854,0.38,0.854,0.854v2.562
		c0,0.475-0.38,0.854-0.854,0.854h-0.674l1.784,2.372H35.348z M32.671,37.289v1.898h2.657v-1.898H32.671z"/>
	<path class="st1" d="M42.33,42.746l-0.513-1.386h-2.81l-0.512,1.386h-1.367l2.562-6.644h1.519l2.562,6.644H42.33z M39.444,40.174
		h1.937l-0.968-2.619L39.444,40.174z"/>
	<path class="st1" d="M50.319,39.425c0,1.927-1.452,3.321-3.464,3.321h-2.421v-6.644h2.421
		C48.867,36.103,50.319,37.498,50.319,39.425z M46.855,41.513c1.215,0,2.088-0.873,2.088-2.088s-0.873-2.088-2.088-2.088h-1.092
		v4.176H46.855z"/>
	<path class="st1" d="M56.2,37.337h-3.559v1.471h2.989v1.233h-2.989v1.472H56.2v1.233h-4.033c-0.475,0-0.854-0.38-0.854-0.854
		v-4.936c0-0.475,0.38-0.854,0.854-0.854H56.2V37.337z"/>
</g>
<g>
	<path class="st1" d="M8.699,21.333h1.538v7.69H8.699v-4.999l-1.538,2.527H5.842l-1.538-2.527v4.999H2.766v-7.69h1.538l2.197,3.614
		L8.699,21.333z"/>
	<path class="st1" d="M15.226,29.024l-0.416-1.123h-2.276l-0.415,1.123h-1.107l2.076-5.383h1.23l2.077,5.383H15.226z M12.888,26.94
		h1.569l-0.784-2.123L12.888,26.94z"/>
	<path class="st1" d="M16.938,29.024v-4.691c0-0.384,0.308-0.692,0.692-0.692h0.384v5.383H16.938z"/>
	<path class="st1" d="M22.783,23.641h1.077v5.383h-1.077l-2.614-3.622v3.622h-1.077v-5.383h1.077l2.614,3.561V23.641z"/>
	<path class="st1" d="M28.878,23.641v1h-1.63v4.384h-1.077V24.64h-1.63v-1H28.878z"/>
	<path class="st1" d="M33.519,24.64h-2.884v1.192h2.422v1h-2.422v1.192h2.884v1H30.25c-0.385,0-0.692-0.308-0.692-0.692v-3.999
		c0-0.384,0.308-0.692,0.692-0.692h3.269V24.64z"/>
	<path class="st1" d="M38.159,23.641h1.077v5.383h-1.077l-2.614-3.622v3.622h-1.077v-5.383h1.077l2.614,3.561V23.641z"/>
	<path class="st1" d="M43.992,29.024l-0.415-1.123h-2.276l-0.415,1.123h-1.107l2.076-5.383h1.23l2.077,5.383H43.992z M41.654,26.94
		h1.569l-0.784-2.123L41.654,26.94z"/>
	<path class="st1" d="M49.395,23.641h1.077v5.383h-1.077l-2.614-3.622v3.622h-1.077v-5.383h1.077l2.614,3.561V23.641z"/>
	<path class="st1" d="M51.283,26.333c0-1.615,1.245-2.769,2.822-2.769c1.161,0,2.422,0.707,2.715,2.076h-1.139
		c-0.246-0.677-0.899-1.038-1.576-1.038c-0.954,0-1.707,0.715-1.707,1.73c0,1.015,0.753,1.73,1.707,1.73
		c0.677,0,1.33-0.361,1.576-1.038h1.139c-0.293,1.369-1.554,2.077-2.715,2.077C52.528,29.101,51.283,27.947,51.283,26.333z"/>
	<path class="st1" d="M61.593,24.64h-2.884v1.192h2.422v1h-2.422v1.192h2.884v1h-3.269c-0.385,0-0.692-0.308-0.692-0.692v-3.999
		c0-0.384,0.308-0.692,0.692-0.692h3.269V24.64z"/>
</g>
</svg>
